<?xml version="1.0" encoding="utf-8"?>
<!-- Generator: Adobe Illustrator 24.0.0, SVG Export Plug-In . SVG Version: 6.00 Build 0)  -->
<svg version="1.1"
	 id="svg2" xmlns:cc="http://creativecommons.org/ns#" xmlns:dc="http://purl.org/dc/elements/1.1/" xmlns:inkscape="http://www.inkscape.org/namespaces/inkscape" xmlns:rdf="http://www.w3.org/1999/02/22-rdf-syntax-ns#" xmlns:sodipodi="http://sodipodi.sourceforge.net/DTD/sodipodi-0.dtd" xmlns:svg="http://www.w3.org/2000/svg"
	 xmlns="http://www.w3.org/2000/svg" xmlns:xlink="http://www.w3.org/1999/xlink" x="0px" y="0px" viewBox="0 0 439.9 291.2"
	 style="enable-background:new 0 0 439.9 291.2;" xml:space="preserve">
<style type="text/css">
	
		.st0{opacity:0.95;fill:#FFFFFF;stroke:#000000;stroke-width:1;stroke-linecap:square;stroke-miterlimit:5.3333;enable-background:new    ;}
	.st1{fill:#FFFFFF;}
	.st2{fill:#262626;}
	.st3{font-family:'Avenir-Black';}
	.st4{font-size:12px;}
	.st5{clip-path:url(#SVGID_2_);}
	.st6{fill:none;stroke:#191919;stroke-width:0.6;stroke-linecap:round;stroke-linejoin:round;stroke-miterlimit:13.3333;}
	.st7{clip-path:url(#SVGID_4_);}
	.st8{fill:none;stroke:#191919;stroke-width:2.6667;stroke-linejoin:round;stroke-miterlimit:13.3333;}
	.st9{font-family:'Avenir-Medium';}
	.st10{clip-path:url(#SVGID_6_);}
	.st11{fill:none;stroke:#191919;stroke-width:0.6667;stroke-linecap:round;stroke-linejoin:round;stroke-miterlimit:13.3333;}
	.st12{clip-path:url(#SVGID_8_);}
	.st13{fill:none;stroke:#C44E52;stroke-width:2;stroke-linejoin:round;stroke-miterlimit:13.3333;stroke-dasharray:7.4,3.2;}
	.st14{clip-path:url(#SVGID_10_);}
	.st15{clip-path:url(#SVGID_12_);}
	.st16{clip-path:url(#SVGID_14_);}
	.st17{clip-path:url(#SVGID_16_);}
	.st18{fill:#191919;stroke:#191919;stroke-width:1.3333;stroke-linejoin:round;stroke-miterlimit:13.3333;}
	.st19{clip-path:url(#SVGID_18_);}
	.st20{clip-path:url(#SVGID_20_);}
	.st21{clip-path:url(#SVGID_22_);}
	.st22{clip-path:url(#SVGID_24_);}
	.st23{clip-path:url(#SVGID_26_);}
	.st24{clip-path:url(#SVGID_28_);}
	.st25{clip-path:url(#SVGID_30_);}
	.st26{clip-path:url(#SVGID_32_);}
	.st27{clip-path:url(#SVGID_34_);}
	.st28{clip-path:url(#SVGID_36_);}
	.st29{clip-path:url(#SVGID_38_);}
	.st30{clip-path:url(#SVGID_40_);}
	.st31{clip-path:url(#SVGID_42_);}
	.st32{clip-path:url(#SVGID_44_);}
	.st33{clip-path:url(#SVGID_46_);}
	.st34{clip-path:url(#SVGID_48_);}
	.st35{clip-path:url(#SVGID_50_);}
	.st36{clip-path:url(#SVGID_52_);}
	.st37{clip-path:url(#SVGID_54_);}
	.st38{clip-path:url(#SVGID_56_);}
	.st39{clip-path:url(#SVGID_58_);}
	.st40{clip-path:url(#SVGID_60_);}
	.st41{clip-path:url(#SVGID_62_);}
	.st42{clip-path:url(#SVGID_64_);}
	.st43{clip-path:url(#SVGID_66_);}
	.st44{clip-path:url(#SVGID_68_);}
	.st45{clip-path:url(#SVGID_70_);}
	.st46{clip-path:url(#SVGID_72_);}
	.st47{clip-path:url(#SVGID_74_);}
	.st48{clip-path:url(#SVGID_76_);}
	.st49{clip-path:url(#SVGID_78_);}
	.st50{fill:none;stroke:#191919;stroke-width:1;stroke-linecap:round;stroke-linejoin:round;stroke-miterlimit:13.3333;}
	.st51{clip-path:url(#SVGID_80_);}
	.st52{fill:none;stroke:#000000;stroke-width:1;stroke-miterlimit:5.3333;}
	.st53{clip-path:url(#SVGID_82_);}
	.st54{fill:none;stroke:#191919;stroke-width:0.7843;stroke-linecap:round;stroke-linejoin:round;stroke-miterlimit:13.3333;}
	.st55{font-family:'Helvetica';}
	.st56{font-size:40px;}
	.st57{font-size:10.6667px;}
	
		.st58{opacity:0.95;fill:none;stroke:#000000;stroke-width:1;stroke-linecap:square;stroke-miterlimit:5.3333;enable-background:new    ;}
	.st59{clip-path:url(#SVGID_84_);}
	.st60{fill:none;}
	.st61{fill-rule:evenodd;clip-rule:evenodd;stroke:#000000;stroke-width:0.4;stroke-miterlimit:1.6;}
	.st62{fill-rule:evenodd;clip-rule:evenodd;stroke:#000000;stroke-width:1.3333;stroke-miterlimit:5.3333;}
	
		.st63{opacity:0.95;stroke:#000000;stroke-width:7.316390e-02;stroke-linecap:square;stroke-miterlimit:5.3333;enable-background:new    ;}
	.st64{font-size:8px;}
	.st65{font-size:6px;}
</style>
<sodipodi:namedview  bordercolor="#666666" borderopacity="1" fit-margin-bottom="0" fit-margin-left="0" fit-margin-right="0" fit-margin-top="0" gridtolerance="10" guidetolerance="10" id="namedview4" inkscape:current-layer="g10" inkscape:cx="-28.125903" inkscape:cy="203.65789" inkscape:pageopacity="0" inkscape:pageshadow="2" inkscape:window-height="634" inkscape:window-maximized="0" inkscape:window-width="1195" inkscape:window-x="0" inkscape:window-y="0" inkscape:zoom="2.7" objecttolerance="10" pagecolor="#ffffff" showgrid="false" showguides="false">
	</sodipodi:namedview>
<path id="rect1983" class="st0" d="M50.2,215.7L50.2,215.7c2.3,0,4.2,1.9,4.2,4.3l0,0c0,2.4-1.9,4.3-4.2,4.3l0,0
	c-2.3,0-4.2-1.9-4.2-4.3l0,0C46,217.7,47.9,215.7,50.2,215.7z"/>
<path id="path14" inkscape:connector-curvature="0" class="st1" d="M114.5,67.9h93V36.2h-93V67.9z"/>
<text transform="matrix(1 0 0 1 107.833 22.8403)" class="st2 st3 st4">B</text>
<g>
	<defs>
		<rect id="SVGID_1_" x="114.5" y="36.2" width="93" height="31.7"/>
	</defs>
	<clipPath id="SVGID_2_">
		<use xlink:href="#SVGID_1_"  style="overflow:visible;"/>
	</clipPath>
	<g id="g22" transform="translate(40.5)" class="st5">
		<path id="path28" inkscape:connector-curvature="0" class="st6" d="M78.2,52l16.9,0l0-15.8l0.1,0.3l1.8,2.9l1.8,2.4l1.9,2l2,1.7
			l2.1,1.4l2.3,1.2l2.6,1l3,0.8l3.5,0.7l4.4,0.5l5.8,0.4l8.6,0.3l16,0.1l11.9,0l0,0"/>
	</g>
</g>
<g>
	<defs>
		<rect id="SVGID_3_" x="114.5" y="36.2" width="93" height="31.7"/>
	</defs>
	<clipPath id="SVGID_4_">
		<use xlink:href="#SVGID_3_"  style="overflow:visible;"/>
	</clipPath>
	<g id="g32" transform="translate(40.5)" class="st7">
		<path id="path38" inkscape:connector-curvature="0" class="st8" d="M145.9,39.4h16.9"/>
	</g>
</g>
<text transform="matrix(1 0 0 1 150.7764 26.1875)" class="st2 st9 st4">STF</text>
<path id="path46" inkscape:connector-curvature="0" class="st1" d="M114.5,115.4h93V83.7h-93V115.4z"/>
<text transform="matrix(1 0 0 1 107.3853 90.3604)" class="st2 st3 st4">C</text>
<g>
	<defs>
		<rect id="SVGID_5_" x="114.5" y="83.7" width="93" height="31.7"/>
	</defs>
	<clipPath id="SVGID_6_">
		<use xlink:href="#SVGID_5_"  style="overflow:visible;"/>
	</clipPath>
	<g id="g54" transform="translate(40.5)" class="st10">
		<path id="path60" inkscape:connector-curvature="0" class="st11" d="M78.2,114l0.2,0h16.8l0-19.3l0.1,0.7l1.2,4.6l1.2,3.5l1.2,2.7
			l0.5,0.8l0-19.3l0.1,0.9l1.2,6.2l1.2,4.7l1.2,3.6l0.5,1.3l0-19.3l0.1,1l1.2,6.8l1.2,5.2l1.2,3.9l0.5,1.4l0-19.3l0.1,1l1.2,7
			l1.2,5.4l1.2,4.1l1.2,3.1l1.2,2.4l1.3,1.8l1.3,1.4l1.4,1.1l1.6,0.9l1.9,0.7l2.4,0.5l3.2,0.4l4.9,0.2l5.4,0.1l0-19.3l0.1,0.7
			l1.2,4.6l1.2,3.5l1.2,2.7l1.3,2l1.3,1.6l1.4,1.2l1.5,1l1.8,0.7l2.1,0.6l2.8,0.4l4,0.3l5.4,0.1l0,0"/>
	</g>
</g>
<g>
	<defs>
		<rect id="SVGID_7_" x="114.5" y="83.7" width="93" height="31.7"/>
	</defs>
	<clipPath id="SVGID_8_">
		<use xlink:href="#SVGID_7_"  style="overflow:visible;"/>
	</clipPath>
	<g id="g64" transform="translate(40.5)" class="st12">
		<path id="path70" inkscape:connector-curvature="0" class="st13" d="M78.2,108.5h84.5l0,0"/>
	</g>
</g>
<g>
	<defs>
		<rect id="SVGID_9_" x="114.5" y="83.7" width="93" height="31.7"/>
	</defs>
	<clipPath id="SVGID_10_">
		<use xlink:href="#SVGID_9_"  style="overflow:visible;"/>
	</clipPath>
	<g id="g74" transform="translate(40.5)" class="st14">
		<path id="path80" inkscape:connector-curvature="0" class="st8" d="M145.9,95.3h8.5"/>
	</g>
</g>
<path id="path84" inkscape:connector-curvature="0" class="st1" d="M114.5,162.9h93v-31.7h-93V162.9z"/>
<text transform="matrix(1 0 0 1 107.3853 137.8804)" class="st2 st3 st4">D</text>
<g>
	<defs>
		<rect id="SVGID_11_" x="114.5" y="131.2" width="93" height="31.7"/>
	</defs>
	<clipPath id="SVGID_12_">
		<use xlink:href="#SVGID_11_"  style="overflow:visible;"/>
	</clipPath>
	<g id="g92" transform="translate(40.5)" class="st15">
		<path id="path98" inkscape:connector-curvature="0" class="st11" d="M78.2,161.4l0.2,0.1h16.8l0-28.6l0.1,0.1l0.7,0.5l0.6,0.8
			l0.6,1.4l0.7,2.4l1.1,4.8l0.4,1.7l0-11.7l0.1,0l1.2,0.2l0.7,0.4l0.6,0.7l0.6,1.3l0.7,2.2l0.3,1l0-5.8l0.1,0l1.5,0.2l0.7,0.4
			l0.6,0.7l0.6,1.2l0.7,1.9l0-4.3l0.1,0l1.6,0.2l0.7,0.4l0.6,0.7l0.6,1.1l0.7,2l0.9,3.7l2.5,10.5l1.1,2.9l1,2l1.1,1.5l1.2,1.1
			l1.3,0.8l1.6,0.6l2,0.5l2.8,0.4l4.4,0.2l5.4,0.1l0-28.6l0.1,0.1l0.7,0.5l0.6,0.8l0.6,1.3l0.7,2.4l1.1,4.8l1.8,7.6l1.1,3.3l1,2.2
			l1,1.6l1.1,1.2l1.3,0.9l1.5,0.7l1.9,0.5l2.6,0.4l3.9,0.3l4.3,0.1l0,0"/>
	</g>
</g>
<g>
	<defs>
		<rect id="SVGID_13_" x="114.5" y="131.2" width="93" height="31.7"/>
	</defs>
	<clipPath id="SVGID_14_">
		<use xlink:href="#SVGID_13_"  style="overflow:visible;"/>
	</clipPath>
	<g id="g102" transform="translate(40.5)" class="st16">
		<g id="g108" transform="translate(60.852907,96.12)">
			<g id="g110">
				<g>
					<defs>
						<rect id="SVGID_15_" x="33" y="64" width="2.7" height="2.7"/>
					</defs>
					<clipPath id="SVGID_16_">
						<use xlink:href="#SVGID_15_"  style="overflow:visible;"/>
					</clipPath>
					<g id="g112" class="st17">
						<path id="path118" inkscape:connector-curvature="0" class="st18" d="M34.3,66c0.2,0,0.3-0.1,0.5-0.2s0.2-0.3,0.2-0.5
							s-0.1-0.3-0.2-0.5s-0.3-0.2-0.5-0.2s-0.3,0.1-0.5,0.2s-0.2,0.3-0.2,0.5s0.1,0.3,0.2,0.5S34.1,66,34.3,66z"/>
					</g>
				</g>
			</g>
			<g id="g120" transform="translate(3.1706131,12.787048)">
				<g id="g122">
					<g>
						<defs>
							<rect id="SVGID_17_" x="34" y="34.2" width="2.7" height="2.7"/>
						</defs>
						<clipPath id="SVGID_18_">
							<use xlink:href="#SVGID_17_"  style="overflow:visible;"/>
						</clipPath>
						<g id="g124" class="st19">
							<path id="path130" inkscape:connector-curvature="0" class="st18" d="M35.3,36.2c0.2,0,0.3-0.1,0.5-0.2s0.2-0.3,0.2-0.5
								s-0.1-0.3-0.2-0.5s-0.3-0.2-0.5-0.2c-0.2,0-0.3,0.1-0.5,0.2c-0.1,0.1-0.2,0.3-0.2,0.5s0.1,0.3,0.2,0.5
								C35,36.1,35.2,36.2,35.3,36.2z"/>
						</g>
					</g>
				</g>
				<g id="g132" transform="translate(3.1706131,4.4364423)">
					<g id="g134">
						<g>
							<defs>
								<rect id="SVGID_19_" x="35.1" y="23.8" width="2.7" height="2.7"/>
							</defs>
							<clipPath id="SVGID_20_">
								<use xlink:href="#SVGID_19_"  style="overflow:visible;"/>
							</clipPath>
							<g id="g136" class="st20">
								<path id="path142" inkscape:connector-curvature="0" class="st18" d="M36.4,25.8c0.2,0,0.3-0.1,0.5-0.2
									c0.1-0.1,0.2-0.3,0.2-0.5c0-0.2-0.1-0.3-0.2-0.5c-0.1-0.1-0.3-0.2-0.5-0.2c-0.2,0-0.3,0.1-0.5,0.2c-0.1,0.1-0.2,0.3-0.2,0.5
									c0,0.2,0.1,0.3,0.2,0.5C36.1,25.8,36.2,25.8,36.4,25.8z"/>
							</g>
						</g>
					</g>
					<g id="g144" transform="translate(3.1706131,1.1183948)">
						<g id="g146">
							<g>
								<defs>
									<rect id="SVGID_21_" x="36.1" y="21.2" width="2.7" height="2.7"/>
								</defs>
								<clipPath id="SVGID_22_">
									<use xlink:href="#SVGID_21_"  style="overflow:visible;"/>
								</clipPath>
								<g id="g148" class="st21">
									<path id="path154" inkscape:connector-curvature="0" class="st18" d="M37.5,23.2c0.2,0,0.3-0.1,0.5-0.2
										c0.1-0.1,0.2-0.3,0.2-0.5c0-0.2-0.1-0.3-0.2-0.5c-0.1-0.1-0.3-0.2-0.5-0.2S37.1,22,37,22.1c-0.1,0.1-0.2,0.3-0.2,0.5
										c0,0.2,0.1,0.3,0.2,0.5C37.1,23.1,37.3,23.2,37.5,23.2z"/>
								</g>
							</g>
						</g>
						<g id="g156" transform="translate(22.194292,-18.316235)">
							<g id="g158">
								<g>
									<defs>
										<rect id="SVGID_23_" x="43.5" y="64" width="2.7" height="2.7"/>
									</defs>
									<clipPath id="SVGID_24_">
										<use xlink:href="#SVGID_23_"  style="overflow:visible;"/>
									</clipPath>
									<g id="g160" class="st22">
										<path id="path166" inkscape:connector-curvature="0" class="st18" d="M44.9,66c0.2,0,0.3-0.1,0.5-0.2
											c0.1-0.1,0.2-0.3,0.2-0.5s-0.1-0.3-0.2-0.5c-0.1-0.1-0.3-0.2-0.5-0.2c-0.2,0-0.3,0.1-0.5,0.2c-0.1,0.1-0.2,0.3-0.2,0.5
											s0.1,0.3,0.2,0.5C44.5,65.9,44.7,66,44.9,66z"/>
									</g>
								</g>
							</g>
						</g>
					</g>
				</g>
			</g>
		</g>
	</g>
</g>
<path id="path170" inkscape:connector-curvature="0" class="st1" d="M114.5,210.4h93v-31.7h-93V210.4z"/>
<text transform="matrix(1 0 0 1 107.833 185.4004)" class="st2 st3 st4">E</text>
<g>
	<defs>
		<rect id="SVGID_25_" x="114.5" y="178.7" width="93" height="31.7"/>
	</defs>
	<clipPath id="SVGID_26_">
		<use xlink:href="#SVGID_25_"  style="overflow:visible;"/>
	</clipPath>
	<g id="g178" transform="translate(40.5)" class="st23">
		<path id="path184" inkscape:connector-curvature="0" class="st11" d="M78.2,209h16.9l0-4l0.1,4h4.1l0-21.3l0.1,21.3h4.1l0-27.3
			l0.1,27.3h4.1l0-28.8L108,209h29.4l0-4l0.1,4h25.2l0,0"/>
	</g>
</g>
<path id="path188" inkscape:connector-curvature="0" class="st1" d="M114.5,265.9h93v-31.7h-93V265.9z"/>
<text transform="matrix(1 0 0 1 108.2812 230.9204)" class="st2 st3 st4">F</text>
<g>
	<defs>
		<rect id="SVGID_27_" x="114.5" y="234.3" width="93" height="31.7"/>
	</defs>
	<clipPath id="SVGID_28_">
		<use xlink:href="#SVGID_27_"  style="overflow:visible;"/>
	</clipPath>
	<g id="g196" transform="translate(40.5,-6)" class="st24">
		<path id="path202" inkscape:connector-curvature="0" class="st11" d="M78.2,240.6l0-0.7l0.1,0.1l0,0.8l0-0.9l0.1,0.5l0,0.3l0-0.7
			l0.1,0.3l0.1-0.4l-0.1,0.8l0.1-0.4l0,0.5l0.1-0.9l0.1,0.7L79,240l0,0.6l0.1-0.5l0.1,0.5l-0.1-0.6l0.1,0.4l0-0.4l0,0.6l0.1-0.4
			l0,0.4l0.1-0.7l0.1,0.3l0.1-0.3l0,0.7l0.1-0.3l0,0.5l0.1-1.1l0,0.6l0.1-0.4l0,0.8l0-0.5l0.1-0.2l0,0.6l0.1-0.7l0,0.3l0.1,0.4
			l-0.1-0.6l0.1,0.6l0.1-0.6l0,0.7l0.1-0.5l0,0.6l0-0.8l0.1,0.3l0.1-0.3l0,0.7l0-0.4l0.1,0.3l-0.1-0.5l0.1,0.4l0.1-0.5l0,0.7
			l0.1-0.4l0.1,0.3l-0.1-0.6l0.1,0.3l0-0.3l0,0.6l0.1-0.2l0.1,0.1l0.1-0.5l0,0.4l0-0.5l0.1,0.6l0-0.2l0,0.2l0-0.6l0.1,0.4l0.1-0.4
			l0.1,0.6l0-0.4l0,0.5l0-0.7l0.1,0.3l0.1-0.3l-0.1,0.8l0.1-0.6l0.1,0.5l-0.1-0.6l0.1,0.4l0.1-0.4l0.1,0.7l0-0.5l0.1,0.5l0-0.7
			l0,0.3l0,0.4l0.1-0.6l0,0.5l0.1-0.7l0.1,0.8l0-0.4l0.1-0.3l-0.1,0.6l0.1-0.2l0.1-0.5l0.1,1l0-0.9l0.1,0.6l0.1-0.7l0,0.8l0.1-0.5
			l0,0.4l0.1-0.5l0.1,0.4l0.1-0.5l-0.1,0.7l0.1-0.5l0.1,0.3l0.1-0.5l0,0.3l0-0.4l0.1,0.6l0-0.3l0-0.2l0,0.5l0-0.4l0.1,0.5l-0.1-0.6
			l0.1,0.3l0.1-0.3l-0.1,0.6l0.1-0.5l0.1,0.5l0-0.6l0,0.4l0.1-0.4l-0.1,0.7l0.1-0.6l0.1,0.6l-0.1-0.7l0.1,0.1l0,0.5l0-0.8l0.1,0.4
			l0.1-0.4l-0.1,0.7l0.1-0.5l0,0.4l0-0.6l0.1,0.2l0-0.5l0.1,0.9l0.1-0.2l0,0.1l0.1-0.5l0.1,0.4l0.1-0.4l0,0.7l0-0.6l0,0.5l0.1,0
			L86,240l0,0.5l0.1-0.3l0,0.4l0.1-0.7l0.1,0.4l0.1-0.4l0,0.6l0.1-0.4l0.1-0.3l0,0.7l0.1-0.3l0.1,0.3l0-0.6l0,0.4l0-0.5l0,0.6
			l0.1-0.3l0.1,0.3l0-0.7l0,0.6l0.1-0.6l0,0.8l0.1-0.6l0.1,0.4l0-0.5l0.1,0.3l0.1-0.3l0,0.7l0.1-0.6l0.1,0.6l-0.1-0.7l0.1,0.3l0-0.3
			l0,0.5l0.1-0.3l0.1,0.5l0-0.7l0,0.3l0.1-0.5l-0.1,0.8l0.1-0.4l0.1,0.3l-0.1-0.9l0.1,0.5l0.1-0.2l0,0.6l0-0.3l0,0.3l0-0.5l0.1,0.1
			l0,0.6l0.1-0.9l0,0.7l0.1-0.6l0,0.7l0.1-0.4l0.1,0.5l-0.1-0.6l0.1,0.1l0.1,0.4l0-0.7l0.1,0.5l0-0.3l0.1,0.5l0.1-0.3l0,0.4l0.1-0.6
			l0.1,0.6l0.1-0.7l0,0.1l0.1,0l0.1,0.7l0-0.8l0.1,0.5l0.1-0.4l0,0.6l0.1-0.3l0.1,0.3l0-0.5l0,0.2l0.1-0.3l-0.1,0.6l0.1-0.3l0,0.4
			l0-0.8l0.1,0.4l0.1-0.3l0,0.5l0-0.2l0.1,0.4l0-0.8l0,0.6l0.1-0.5l0,0.7l0.1-0.5l0.1,0.5l0-0.6l0.1,0.3l0-0.2l0,0.5l0.1-0.3
			l0.1,0.3l0.1-0.6l0,0.5l0.1-0.6l-0.1,0.7l0.1-0.5l0.1,0.5l0-0.6l0.1,0.4l0.1-0.4l0,0.5l0.1-0.2l0,0.4l0-0.7l0.1,0.4l0.1-0.5
			l0.1,0.7l0-0.3l0.1,0.4l0-0.7l0.1,0.3l0-0.5l0,0.8l0.1-0.6l0,0.6l0.1-0.2l0,0.2l0.1-0.7l0,0.2l0.1-0.4l0,0.7l0-0.3l0.1,0.4
			l-0.1-0.7l0.1,0.5l0.1-0.5l0,0.9l0.1-0.6l0.1-0.1l0,0.6l0.1-0.7l0,0.7l0.1-0.3l0,0.2l0.1-0.7l0,0.6l0.1-0.5l0.1,0.6l0-0.4l0.1,0.5
			l0-0.6l0.1,0.5l0-0.4l0,0.6l0.1-0.4l0-0.2l0.1,0.6l0-0.1l0,0.2l0.1-0.8l0,0.5l0.1-0.5l-0.1,0.8l0.1-0.3l0.1,0.3l-0.1-0.6l0.1,0.2
			l0.1-0.5l-0.1,0.9l0.1-0.4l0.1,0.3l0-0.5l0,0.2l0.1-0.3l-0.1,0.6l0.1-0.4l0,0.4L95,240l0,0.5l0-0.5l0.1,0.7l0.1-0.5l0,4.1l0-4.2
			l0.2,3.2l0.1-0.8l-0.1,1l0.1-0.8l0,0.4l0.1-1.2l0,0.6l0.1-1l0.1,0.2l0,0.3l0.1-0.6l0,0.3l0.1-0.6l-0.1,0.8l0.1-0.6l0,0.2l0.1-0.8
			l0,0.2l0.1-0.4l0,0.9l0-0.5l0,0.4l0.1-0.6l0.1,0.6l0.1-0.7l0,0.1l0,0.2l0.1-0.5l0,0.2l0.1,0.4l0-0.7l0,0.4l0-0.5l0,0.7l0.1-0.3
			l0-0.2l0,0.2l0-0.5l0.1,0.7l0.1-0.5l0.1,0.5l0-0.6l0.1,0.3l0.1-0.3l-0.1,0.7l0.1-0.4l0,0.3l0.1-0.5l0,0.3l0.1-0.4l0,0.6l0-0.5
			l0.1,0.5l-0.1-0.6l0.1,0.4L98,240l0,0.7l0.1-0.4l0.1-0.2l-0.1,0.6l0.1-0.3l0.1,0.4l0-0.7l0.1,0.5l0.1-0.5l-0.1,0.8l0.1-0.7
			l0.1,0.5l0-0.6l0.1,0.3l0-0.3l0.1,0.6l0.1-0.4l0.1,0.4l-0.1-0.8l0.1,0.5l0-0.4l0,0.6l0.1-0.2l0,0.3l0.1-0.7l0,0.4l0.1-0.4l0,0.7
			l0-0.2l0,20.1l0.1-3.2l0,0.1l0.1-1.2l0,0l0.2-3.4l0,0.1l0.1-1.5l0,0.1l0.2-2.6l-0.2,2.6l0.2-2.5l0,0.3l0.1-1.5l0.2-1.7l0,0.4
			l0.1-1.3l0,0.4l0.1-1.6l0,0.4l0.1-1l-0.1,1.1l0.2-0.7l0,0l0-0.7l0.1,0.5l0.1-1.1l0,0.3l0,0l0-0.4l0,0.1l0.1-0.6l-0.1,1l0.1-0.7
			l0,0l0,0l0.1-0.8l-0.1,0.9l0.1-0.6l0,0.3l0-0.6l0.1,0.4l0.1-0.7l0,0.9l0.1-0.6l0,0.3l0.1-0.8l0.1,0.4l0.1-0.6l-0.1,0.6l0.1-0.5
			l0,0.3l0-0.5l0,0.1l0.1-0.2l-0.1,0.4l0.1-0.2l0,0l0.1-0.5l0,0.2l0.1-0.2l-0.1,0.7l0.1-0.4l0.1,0.5l0-0.8l0,0.3l0.1-0.5l-0.1,0.7
			l0.1-0.2l0-0.5l0.1,0.6l0-0.8l0.1,0.3l0.1-0.4l0,0.8l0.1-0.5l0.1,0.5l0-0.8l0.1,0.4l0.1-0.4l0,0.7l0-0.1l0,0l0.1-0.5l-0.1,0.6
			l0.1-0.5l0,0.3l0-0.4l0,0.1l0,26.5l0.1-4.2l0.3-7.8l0,0.3l0.1-2l0,0.2l0.4-4.9l0,0.1l0,0.3l0.1-1.5l0,0.3l0,0l0.2-1.6l0,0.4
			l0.1-1.1l0,0.2l0.2-1.7l-0.2,2l0.3-1.7l0,0.1l0.1-0.7l0,0.4l0.1-1l0,0.3l0.1-0.5l-0.1,0.5l0.1-0.5l0.1-0.7l-0.1,0.8l0.1-0.6l0,0.4
			l0.1-0.9l0,0.5l0.1-0.8l0,0.4l0,0.3l0.1-0.7l0,0.3l0.1-0.5l-0.1,0.7l0.1-0.6l0,0.4l0.1-0.7l0,0.5l0.1,0l0.1-0.7l0.1,0.6l0.1-0.2
			l0.1-0.4l0.1,0.7l0-0.7l0,0.5l0.1-0.7l0,0.5l0-0.6l0.1,0.8l0-0.3l0.1,0.1l-0.1-0.5l0.1,0.4l0.1-0.5l-0.1,0.6l0.1-0.5l0.1,0.6
			l0-0.6l0,0.4l0.1-0.4l0,0.4l0-0.3l0,27.6l0.1-4.5l0,0l0-0.5l0,0.1l0.2-4.4l0,0.2l0,0.2l0.1-2.4l0.2-3.5l0,0l0,0.3l0.1-2l0,0.2
			l1-8.1l-1,8.1l1-8.1l0,0.5l0.1-1l0,0.3l0.1-0.9l0,0.5l0.1-0.7l-0.1,0.8l0.1-0.5l0.1-0.7l0,0.7l0.1-0.5l0,0.2l0.1-0.6l0,0.2
			l0.1-0.7l-0.1,0.7l0.1-0.2l0,0.1l0.1-0.7l0,0.4l0.1-0.6l-0.1,0.8l0.1-0.5l0,0.4l0.1-0.7l0.1,0.5l0.1-0.6l-0.1,0.6l0.1-0.5l0.1,0.4
			l0-0.8l0.1,0.1l0.1,0.5l0-0.7l0.1,0.6l0.1-0.7l-0.1,0.7l0.1-0.2l0.1-0.4l-0.1,0.6l0.1-0.2l0.1-0.5l0,0.7l0.1-0.1l0.1-0.6l0,0.5
			l0.1,0.2l0-0.8l0.1,0.3l0.1-0.2l-0.1,0.7l0.1-0.7l0,0.6l0.1-0.7l0,0.5l0.1-0.3l0,0.5l0-0.4l0.1,0.3l-0.1-0.7l0.1,0.3l0.1-0.2
			l-0.1,0.6l0.1-0.2l0-0.3l0,0.6l0.1-0.5l0.1,0.3l0-0.6l0.1,0.4l0.1-0.5l0,0.8l0.1-0.4l0,0.2l0-0.4l0,0.1l0-0.2l0.1,0.7l0-0.6l0,0.6
			l0-0.6l0.1,0.1l0.1,0.6l0-0.7l0,0.4l0.1-0.5l0,0.7l0-0.2l0.1-0.5l-0.1,0.7l0.1-0.3l0.1,0.3l0-0.5l0.1,0.2l0-0.2l0.1,0.6l0-0.6
			l0,0.8l0.1-0.8l0.1,0.6l0.1-0.7l0,0.2l0,0.5l0-0.6l0.1,0.6l0.1-0.6l0,0.7l0.1-0.5l0.1,0.4l-0.1-0.7l0.1,0.5l0.1-0.4l0,0.5l0-0.2
			l0.1-0.3l0.1,0.7l0.1-0.8l-0.1,0.9l0.1-0.8l0.1,0.5l-0.1-0.6l0.1,0.5l0.1-0.4l-0.1,0.6l0.1-0.5l0.1,0.4l-0.1-0.7l0.1,0.5l0.1-0.5
			l0,0.7l0.1-0.5l0.1,0.5l0-0.7l0.1,0.4l0.1-0.5l0,0.7l0.1-0.2l0.1,0.1l0-0.6l0.1,0.2l0.1-0.2l0,0.7l0.1-0.5l0.1,0.4l0-0.7l0.1,0.3
			l0.1-0.3l0,0.6l0-0.3l0,0.2l0-0.7l0.1,0.5l0-0.3l0.1,0.4l0.1-0.1l0,0.3l0-0.7l0.1,0.4l0.1,0.3l-0.1-0.6l0.1,0.2l0.1-0.2l-0.1,0.6
			l0.1-0.2l0.1,0.2l-0.1-0.7l0.1,0.6l0-0.5l0,0.8l0.1-0.5l0.1-0.1l0,0.6l0.1-0.7l0.1,0.1l0.1,0.5l-0.1-0.7l0.1,0.4l0.1-0.4l-0.1,0.8
			l0.1-0.4l0,0.3l0.1-0.6l0.1,0.8l0-0.9l0.1,0.6l0.1,0.2l0.1-0.7l0,0.6l0-0.7l0.1,0.5l0.1-0.5l-0.1,0.7l0.1-0.5l0.1,0.4l0-0.7l0,0.7
			l0.1-0.5l0.1,0.5l0.1-0.4l0,0.5l0-0.2l0.1,0.3l0-0.8l0.1,0.5l0-0.5l0.1,0.7l0-0.3l0,0.2l0-0.5l0.1,0.3l0.1,0.2l0-0.4l0,0.3l0-0.4
			l0.1,0.6l0-0.4l0,0.6l0-0.7l0.1,0.4l0.1-0.5l-0.1,0.6l0.1-0.2l0.1,0.3l-0.1-0.6l0.1,0.2l0.1-0.4l0,0.8l0-0.3l0.1,0.2l0-0.5
			l0.1,0.2l0-0.4l0.1,0.6l0.1-0.2l0.1,0.3l-0.1-0.7l0.1,0.5l0.1-0.6l-0.1,0.7l0.1-0.2l0.1,0.3l0-0.6l0.1,0.4l0.1-0.4l0,0.7l0.1-0.5
			l0,0.5l0-0.7l0.1,0.4l0-0.3l0.1,0.5l0,0l0,0.1l0.1-0.7l0,0.6l0.1-0.6l-0.1,0.6l0.1-0.4l0.1,0.5l-0.1-0.7l0.1,0.7l0.1-0.6l-0.1,0.7
			l0.1-0.6l0.1,0.5l0.1-0.7l0.1,0.6l0-0.8l0.1,0.6l0.1-0.5l0,0.8l0.1-0.5l0,0.4l0-0.7l0.1,0.3l0.1,0.4l0-0.6l0.1,0.3l0.1-0.4
			l0.1,0.6l0-0.6l0.1,0.7l0.1-0.3l0.1-0.4l0,0.6l0-0.2l0.1-0.3l0,0.5l0.1-0.3l0-0.2l0,0.4l0,0.3l0-0.8l0.1,0.7l0-0.7l0.1,0.1
			l0.1,0.5l0-0.6l0.1,0.3l0-0.3l0.1,0.6l0,0l0.1-0.6l0,0.7l0.1-0.3l0.1,0.3l-0.1-0.8l0.1,0.6l0-0.6l0,0.6l0.1-0.3l0.1-0.2l0,0.6
			l0.1-0.2l0.1,0.2l-0.1-0.7l0.1,0.5l0-0.5l0.1,0.7l0-0.3l0-0.3l0.1,0.5l0.1-0.5l0,0.4l0.1,0.1l0-0.5l0,0.4l0-0.5l0,0.7l0.1-0.3
			l0.1-0.3l0,0.7l0.1-0.5l0.1,0.3l-0.1-0.7l0.1,0.4l0.1-0.3l-0.1,0.8l0.1-0.6l0,0.3l0-0.6l0.1,0.4l0.1-0.6l0,0.6l0.1-0.5l0.1,0.5
			l-0.1-0.6l0.1,0.2l0-0.2l0,0.7l0.1-0.4l0.1,0.3l-0.1-0.6l0.1,0.4l0.1-0.5l0,0.7l0.1-0.4l0,0.3l0.1-0.7l0,0.5l0.1-0.6l0,0.8l0-0.6
			l0.1,0.6l-0.1-0.6l0.1,0.4l0-0.4l0.1,0.7l0,0l0.1-0.7l0,0.4l0,0.2l0.1-0.6l0,0.3l0.1-0.3l0,0.7l0-0.4l0.1,0.3l-0.1-0.6l0.1,0.3
			l0.1,0.3l0-0.4l0,0.1l0,0.4l0.1-0.7l0.1,0.6l0-0.7l0.1,0.5l0.1-0.4l-0.1,0.5l0.1-0.1l0.1,0.1l0-0.6l0,0.4l0-0.3l0.1,0.8l0.2-0.7
			l0,0.8l0.1-0.8l0,0.6l0.1-0.5l0,0.3l0,0.2l0-0.5l0,0.2l0.1-0.3l0.1,0.6l0-0.4l0.1,0.4L130,240l0.1,0.3l0-0.2l0.1,0.4l0-0.3
			l0.2,0.4l0-0.6l0,0.5l0-0.6l0.1,0.7l0.1-0.4l0.1,0.5l0-0.7l0.1,0.4l0-0.3l0,0.5l0.1-0.3l0.1,0.3l-0.1-0.6l0.1,0.3l0,0.3l0-0.5
			l0.1,0.3l0.1-0.4l0,0.7l0-0.4l0,0.4l0.1-0.7l0,0.3l0,0.3l0.1-0.7l0,0.4l0-0.2l0.1,0.6l0.1-0.3l0.1-0.4l0,0.7l0.1-0.3l0.1,0.3
			l0-0.6l0.1,0.5l0.1-0.4l-0.1,0.5l0.1-0.4l0,0.6l0.1-0.8l0.1,0.7l0.1-0.6l-0.1,0.7l0.1-0.3l0.1,0.4l-0.1-0.8l0.1,0.5l0-0.2l0,0.4
			l0.1-0.8l0.1,0.7l0.1-0.5l-0.1,0.6l0.1-0.4l0,0.4l0-0.6l0.1,0.2l0-0.3l0.1,0.7l0-0.2l0.1-0.4l-0.1,0.6l0.1-0.4l0,0.5l0.1-0.7
			l0,0.5l0-0.4l0.1,0.6l0-0.3l0.1-0.4l-0.1,0.6l0.1-0.3l0.1,0.4l0.1-0.6l0,0.5l0.1-0.6l0,0.7l0-0.2l0,0.3l0-0.7l0.1,0.4l0.1-0.6
			l-0.1,0.7l0.1-0.5l0.1,0.4l0-0.6l0.1,0.5l0.1-0.5l0,0.8l0.1-0.3l0,0.2l0.1-0.6l0,0.4l0-0.3l0.1,0.7l0-0.6l0,0.7l0.1-0.8l0,0.4
			l0-0.4l0,0.6l0.1-0.3l0.1-0.5l0,0.9l0-0.5l0.1,0.3l-0.1-0.6l0.1,0.3l0.1,0.4l0.1-0.8l0,0.7l0.1-0.4l0.1,0.7l-0.1-0.8l0.1,0.2
			l0-0.2l0,0.7l0.1-0.3l0.1-0.3l-0.1,0.6l0.1-0.3l0.1,0.3l0-0.7l0.1,0.5l0.1-0.2l0,0.5l0.1-0.3l0.1,0.2l0-0.6l0.1,0.2l0.1,0.5
			l0.1-0.7l0,0.7l0.1-0.5l0,0.3l0-0.5l0.1,0.5l0.1-0.5l0,0.6l0-0.6l0.1,0.6l0-0.9l0.1,0.5l0-0.4l0,4.4l0.1-0.5l0,0.2l0.1-1l0,0.4
			l0.2-0.9l-0.1,1l0.1-0.7l0,0.1l0.1-0.6l0,0.4l0.1-0.8l0,0.1l0,0.2l0.1-0.6l0,0.3l0.1-0.6l0,0.7l0.1-0.7l0,0.4l0.1-0.6l0,0.4
			l0.1-0.5l-0.1,0.5l0.1-0.3l0.1-0.4l-0.1,0.8l0.1-0.6l0,0.3l0.1-0.6l0,0.5l0.1-0.6l-0.1,0.6l0.1-0.4l0,0.4l0.1-0.8l0,0.7l0.1-0.7
			l0.1,0.4l0,0.2l0-0.5l0,0.2l0.1-0.4l-0.1,0.8l0.1-0.7l0.1,0.5l0-0.6l0,0.3l0.1-0.4l0,0.6l0.1-0.5l0.1,0.6l-0.1-0.7l0.1,0.5
			l0.1-0.6l0.1,0.7l0-0.3l0,0.3l0.1-0.7l0.1,0.4l0.1-0.2l-0.1,0.5l0.1-0.2l0,0.2l0.1-0.6l0.1,0.2l0-0.2l0,0.6l0.1-0.2l0,0.2l0.1-0.6
			l0,0.6l0.1-0.8l0,1l0.1-0.3l0.1-0.6l0.1,0.4l0.1-0.2l0.1,0.7l0.2-0.8l0.1,0.8l0.1-0.6l0,0.6l0-0.6l0.1,0.4l0-0.4l0,0.7l0.1-0.5
			l0.1,0.5l-0.1-0.7l0.1,0.3l0-0.4l0.1,0.7l0.1-0.4l0.1,0.3l0-0.8l0,0.6l0-0.6l0.1,0.6l0.1-0.6l0.1,0.5l0.1-0.1l0.1-0.4l0,0.5l0-0.3
			l0.1,0.3l0-0.6l0.1,0.4l0.1-0.4l0,0.6l0.1-0.6l0.1,0.7l0-0.9l0,0.5l0-0.4l0,0.6l0.1-0.6l0.1,0.7l0-0.2l0.1-0.5l0,0.7l0.1-0.3
			l0,0.3l0-0.7l0.1,0.5l0.1-0.5l-0.1,0.5l0.1-0.2l0.1,0.3l0-0.8l0.1,0.5l0-0.4l0,0.7l0.1-0.4l0,0.4l0-0.6l0.1,0.4l0-0.3l0,0.5
			l0.1-0.4l0.1-0.2l0,0.8l0.1-0.6l0,0.4l0,0.1l0-0.7l0.1,0.4l0-0.3l0.1,0.8l0-0.5l0,0.5l0.1-0.7l0,0.6l0.1-0.8l0.1,0.4l0,0.2l0-0.7
			l0.1,0.5l0-0.4l0.1,0.6l0-0.5l0-0.2l0,0.5l0.1-0.3l0.1,0.6l-0.1-0.8l0.1,0.4l0.1-0.5l0,0.9l0-0.7l0,0.6l0.1-0.7l0,0.3l0.1-0.3
			l0,0.5l0.1-0.4l0,0.4l0.1-0.8l0.1,0.4l0.1,0.4l0.1-0.7l0.1,0.7l0-0.4l0.1,0.4l0-0.5l0.1,0.1l0.1-0.5l-0.1,0.8l0.1-0.5l0,0.5l0-0.7
			l0.1,0.6l0.1-0.6l-0.1,0.7l0.1-0.2l0-0.6l0.1,0.6l0-0.3l0,0.5l0.1-0.9l0.1,0.4l0-0.2l0,0.4l0.1,0l0.1-0.4l0.1,0.7l0.1-0.7l0,0.7
			l0-0.6l0.1,0.5l-0.1-0.9l0.1,0.7l0.1-0.4l0,0.7l0.1-0.3l0-0.5l0,0.6l0.1-0.1l0,0.2l0.1-0.7l0,0.5l0-0.5l0.1,0.5l0-0.3l0-0.3
			l0.1,0.5l0-0.5l0.1,0.6l0-0.3l0.1-0.4l-0.1,0.7l0.1-0.5l0.1,0.5l0-0.6l0,0.4l0.1-0.3l0,0.6l0.1-0.5l0.1,0.4l0-0.6l0.1,0.5l0-0.4
			l0.1,0.6l0-0.3l0.1-0.2l0,0.5l0-0.4l0,0.4l0.1-0.7l0,0.4l0.1-0.3l0,0.4l0-0.1l0,0.3l0-0.7l0.1,0.4l0-0.4l0,0.7l0.1-0.4l0.1,0.4
			l-0.1-0.8l0.1,0.4l0,0.4l0.1-0.8l0.1,0.7l0-0.6l0,0.6l0.1-0.1l0.1-0.6l-0.1,0.8l0.1-0.5l0.1,0.3l0-0.5l0,0.4l0-0.5l0,0.7l0.1-0.3
			l0.1,0.3l-0.1-0.5l0.1,0.3l0-0.5l0.1,0.8l0.1-0.3l0.1-0.3l0,0.5l0-0.2l0-0.4l0.1,0.7l0.1-0.6l0.1,0.1l0,0.8l0.1-0.8l0,0.5l0.1-0.5
			l0,0.7l0-0.2l0,0.2l0.1-0.6l0,0.3l0.1-0.4l-0.1,0.8l0.1-0.7l0,0.6l0.1-0.7l0,0.1l0-0.1l0,0.5l0.1-0.5l0.1,0.6l0-0.5l0.1,0.6l0-0.6
			l0,0.4l0.1-0.5l-0.1,0.8l0.1-0.2l0.1-0.4l0,0.5l0.1-0.3l0.1,0.3l0-0.5l0,0.5l0-0.7l0,0.8l0.1-0.5l0,0.4l0.1-0.7l0,0.5l0,0l0.1-0.4
			l0,0.6l0-0.3l0.1,0.2l-0.1-0.6l0.1,0.2l0.1-0.2l-0.1,0.6l0.1-0.4l0,0.6l0-0.9l0.1,0.4l0.1-0.3l0,0.6l0.1-0.4l0.1,0.4l-0.1-0.8
			l0.1,0.6l0.1-0.4l0,0.5l0.1-0.5l0.1,0.6l0-0.7l0,0.5l0.1-0.5l-0.1,0.7l0.1-0.3l0.1-0.3l0,0.6l0.1-0.5l0.1-0.2l0.1,0.6l0.1-0.6
			l-0.1,0.6l0.1,0l0,0.2l0.1-0.7l0.1,0.2l0.1-0.3l0,0.7l0.1-0.5l0.1,0.7l0-0.7l0.1,0.2l0.1-0.2l0,0.6l0-0.4l0.1,0.5l-0.1-0.7
			l0.1,0.4l0-0.5l0,0.7l0.1-0.5l0.1,0.5l-0.1-0.6l0.1,0.4l0.1-0.5l-0.1,0.5l0.1-0.2l0,0.3l0-0.6l0.1,0.1l0.1-0.3l-0.1,0.6l0.1-0.5
			l0.1,0.6l-0.1-0.6l0.1,0.3l0.1-0.3l0,0.7l0-0.2l0.1,0.3l0-0.6l0.1,0.3l0.1-0.4l0,0.7l0.1-0.4l0.1,0.5l-0.1-0.8l0.1,0.5l0.2-0.5
			l-0.1,1l0.1-0.8l0.1,0.6l0.1-0.7l0,0.4l0.1-0.5l-0.1,0.8l0.1-0.7l0.1,0.7l0-0.3l0.1-0.3l0,0.6l0.1-0.4l0,0.6l0-0.9l0.1,0.3
			l0.1-0.2l-0.1,0.6l0.1-0.4l0.1,0.5l0-0.7l0,0.5l0-0.4l0.1,0.6l0.1-0.2l0,0l0.1-0.4l0,0.5l0.1-0.3l0.1,0.2l-0.1-0.6l0.1,0.3l0-0.2
			l0.1,0.5l0-0.2l0.1,0.2l-0.1-0.5l0.1,0.2l0.1-0.5l0,0.6l0.1-0.3l0,0.3l0-0.5l0.1,0.3l0.1,0.2l0-0.5l0,0.5l0-0.6l0.1,0.6l0.1-0.6
			l0,0l0.1,0.6l0-0.6l0,0.1l0-0.2l0.1,0.7l0.1-0.2l0,0.3l0-0.7l0.1,0.4l0.1-0.2l0,0.4l0.1-0.2l0,0.3l0-0.7l0.1,0.7l0-0.6l0.1,0.6
			l0-0.2l0.1-0.5l0,0.6l0.1-0.3l0,0.5l0.1-0.8l0.1,0.5l0-0.6l0,0.7l0.1-0.6l0,0.5l0.1-0.2l0-0.5l0.1,0.8l0-0.6l0.1,0.5l0-0.6
			l0.1,0.3l0.1-0.4l0,0.6l0-0.1l0.1,0.1l0.1-0.6l0,0.3l0-0.3l0.1,0.7l0-0.5l0,0.3l0-0.4l0,0.3"/>
	</g>
</g>
<g>
	<defs>
		<rect id="SVGID_29_" x="232" y="36.2" width="93" height="31.7"/>
	</defs>
	<clipPath id="SVGID_30_">
		<use xlink:href="#SVGID_29_"  style="overflow:visible;"/>
	</clipPath>
	<g id="g206" transform="translate(24)" class="st25">
		<path id="path212" inkscape:connector-curvature="0" class="st6" d="M212.2,52l16.9,0l0,15.8l0.1-0.3l1.8-2.9l1.8-2.4l1.9-2l2-1.7
			l2.1-1.4l2.3-1.2l2.6-1l3-0.8l3.5-0.7l4.4-0.5l5.8-0.4l8.6-0.3l16-0.1l11.9,0l0,0"/>
	</g>
</g>
<text transform="matrix(1 0 0 1 266.3784 26.1875)" class="st2 st9 st4">STD</text>
<g>
	<defs>
		<rect id="SVGID_31_" x="232" y="83.7" width="93" height="31.7"/>
	</defs>
	<clipPath id="SVGID_32_">
		<use xlink:href="#SVGID_31_"  style="overflow:visible;"/>
	</clipPath>
	<g id="g222" transform="translate(24)" class="st26">
		<path id="path228" inkscape:connector-curvature="0" class="st11" d="M212.2,85.1l0.2,0h16.8l0,19.3l0.1-0.7l1.2-4.6l1.2-3.5
			l1.2-2.7l0.5-0.8l0,19.3l0.1-0.9l1.2-6.2l1.2-4.7l1.2-3.6l0.5-1.3l0,19.3l0.1-1l1.2-6.8l1.2-5.2l1.2-3.9l0.5-1.4l0,19.3l0.1-1
			l1.2-7l1.2-5.4l1.2-4.1l1.2-3.1l1.2-2.4l1.3-1.8l1.3-1.4l1.4-1.1l1.6-0.9l1.9-0.7l2.4-0.5l3.2-0.4l4.9-0.2l5.4-0.1l0,19.3l0.1-0.7
			l1.2-4.6l1.2-3.5l1.2-2.7l1.3-2l1.3-1.6l1.4-1.2l1.5-1l1.8-0.7l2.1-0.6l2.8-0.4l4-0.3l5.4-0.1l0,0"/>
	</g>
</g>
<g>
	<defs>
		<rect id="SVGID_33_" x="232" y="83.7" width="93" height="31.7"/>
	</defs>
	<clipPath id="SVGID_34_">
		<use xlink:href="#SVGID_33_"  style="overflow:visible;"/>
	</clipPath>
	<g id="g232" transform="translate(24)" class="st27">
		<path id="path238" inkscape:connector-curvature="0" class="st13" d="M212.2,90.6h84.5l0,0"/>
	</g>
</g>
<g>
	<defs>
		<rect id="SVGID_35_" x="232" y="131.2" width="93" height="31.7"/>
	</defs>
	<clipPath id="SVGID_36_">
		<use xlink:href="#SVGID_35_"  style="overflow:visible;"/>
	</clipPath>
	<g id="g242" transform="translate(24)" class="st28">
		<path id="path248" inkscape:connector-curvature="0" class="st11" d="M212.2,132.7l0.2-0.1h16.8l0,28.6l0.1-0.1l0.7-0.5l0.6-0.8
			l0.6-1.4l0.7-2.4l1.1-4.8l0.4-1.7l0,11.7l0.1,0l1.2-0.2l0.7-0.4l0.6-0.7l0.6-1.3l0.7-2.2l0.3-1l0,5.8l0.1,0l1.5-0.2l0.7-0.4
			l0.6-0.7l0.6-1.2l0.7-1.9l0,4.3l0.1,0l1.6-0.2l0.7-0.4l0.6-0.7l0.6-1.1l0.7-2l0.9-3.7l2.5-10.5l1.1-2.9l1-2l1.1-1.5l1.2-1.1
			l1.3-0.8l1.6-0.6l2-0.5l2.8-0.4l4.4-0.2l5.4-0.1l0,28.6l0.1-0.1l0.7-0.5l0.6-0.8l0.6-1.3l0.7-2.4l1.1-4.8l1.8-7.6l1.1-3.3l1-2.2
			l1-1.6l1.1-1.2l1.3-0.9l1.5-0.7l1.9-0.5l2.6-0.4l3.9-0.3l4.3-0.1l0,0"/>
	</g>
</g>
<g>
	<defs>
		<rect id="SVGID_37_" x="232" y="131.2" width="93" height="31.7"/>
	</defs>
	<clipPath id="SVGID_38_">
		<use xlink:href="#SVGID_37_"  style="overflow:visible;"/>
	</clipPath>
	<g id="g252" transform="translate(24)" class="st29">
		<g id="g258" transform="translate(165.47791,117.72)">
			<g id="g260">
				<g>
					<defs>
						<rect id="SVGID_39_" x="62.3" y="13.6" width="2.7" height="2.7"/>
					</defs>
					<clipPath id="SVGID_40_">
						<use xlink:href="#SVGID_39_"  style="overflow:visible;"/>
					</clipPath>
					<g id="g262" class="st30">
						<path id="path268" inkscape:connector-curvature="0" class="st18" d="M63.7,15.6c0.2,0,0.3-0.1,0.5-0.2
							c0.1-0.1,0.2-0.3,0.2-0.5s-0.1-0.3-0.2-0.5s-0.3-0.2-0.5-0.2s-0.3,0.1-0.5,0.2c-0.1,0.1-0.2,0.3-0.2,0.5s0.1,0.3,0.2,0.5
							C63.3,15.5,63.5,15.6,63.7,15.6z"/>
					</g>
				</g>
			</g>
			<g id="g270" transform="translate(3.1706131,-12.787048)">
				<g id="g272">
					<g>
						<defs>
							<rect id="SVGID_41_" x="63.4" y="43.5" width="2.7" height="2.7"/>
						</defs>
						<clipPath id="SVGID_42_">
							<use xlink:href="#SVGID_41_"  style="overflow:visible;"/>
						</clipPath>
						<g id="g274" class="st31">
							<path id="path280" inkscape:connector-curvature="0" class="st18" d="M64.7,45.5c0.2,0,0.3-0.1,0.5-0.2
								c0.1-0.1,0.2-0.3,0.2-0.5s-0.1-0.3-0.2-0.5c-0.1-0.1-0.3-0.2-0.5-0.2s-0.3,0.1-0.5,0.2c-0.1,0.1-0.2,0.3-0.2,0.5
								s0.1,0.3,0.2,0.5C64.4,45.4,64.5,45.5,64.7,45.5z"/>
						</g>
					</g>
				</g>
				<g id="g282" transform="translate(3.1706131,-4.4364423)">
					<g id="g284">
						<g>
							<defs>
								<rect id="SVGID_43_" x="64.4" y="53.8" width="2.7" height="2.7"/>
							</defs>
							<clipPath id="SVGID_44_">
								<use xlink:href="#SVGID_43_"  style="overflow:visible;"/>
							</clipPath>
							<g id="g286" class="st32">
								<path id="path292" inkscape:connector-curvature="0" class="st18" d="M65.8,55.8c0.2,0,0.3-0.1,0.5-0.2
									c0.1-0.1,0.2-0.3,0.2-0.5c0-0.2-0.1-0.3-0.2-0.5c-0.1-0.1-0.3-0.2-0.5-0.2c-0.2,0-0.3,0.1-0.5,0.2c-0.1,0.1-0.2,0.3-0.2,0.5
									c0,0.2,0.1,0.3,0.2,0.5C65.4,55.7,65.6,55.8,65.8,55.8z"/>
							</g>
						</g>
					</g>
					<g id="g294" transform="translate(3.1706131,-1.1183948)">
						<g id="g296">
							<g>
								<defs>
									<rect id="SVGID_45_" x="65.5" y="56.4" width="2.7" height="2.7"/>
								</defs>
								<clipPath id="SVGID_46_">
									<use xlink:href="#SVGID_45_"  style="overflow:visible;"/>
								</clipPath>
								<g id="g298" class="st33">
									<path id="path304" inkscape:connector-curvature="0" class="st18" d="M66.8,58.4c0.2,0,0.3-0.1,0.5-0.2
										c0.1-0.1,0.2-0.3,0.2-0.5s-0.1-0.3-0.2-0.5c-0.1-0.1-0.3-0.2-0.5-0.2c-0.2,0-0.3,0.1-0.5,0.2c-0.1,0.1-0.2,0.3-0.2,0.5
										s0.1,0.3,0.2,0.5C66.5,58.3,66.7,58.4,66.8,58.4z"/>
								</g>
							</g>
						</g>
						<g id="g306" transform="translate(22.194292,18.316235)">
							<g id="g308">
								<g>
									<defs>
										<rect id="SVGID_47_" x="72.9" y="13.7" width="2.7" height="2.7"/>
									</defs>
									<clipPath id="SVGID_48_">
										<use xlink:href="#SVGID_47_"  style="overflow:visible;"/>
									</clipPath>
									<g id="g310" class="st34">
										<path id="path316" inkscape:connector-curvature="0" class="st18" d="M74.2,15.7c0.2,0,0.3-0.1,0.5-0.2
											c0.1-0.1,0.2-0.3,0.2-0.5s-0.1-0.3-0.2-0.5c-0.1-0.1-0.3-0.2-0.5-0.2s-0.3,0.1-0.5,0.2c-0.1,0.1-0.2,0.3-0.2,0.5
											s0.1,0.3,0.2,0.5C73.9,15.6,74.1,15.7,74.2,15.7z"/>
									</g>
								</g>
							</g>
						</g>
					</g>
				</g>
			</g>
		</g>
	</g>
</g>
<g>
	<defs>
		<rect id="SVGID_49_" x="232" y="178.7" width="93" height="31.7"/>
	</defs>
	<clipPath id="SVGID_50_">
		<use xlink:href="#SVGID_49_"  style="overflow:visible;"/>
	</clipPath>
	<g id="g320" transform="translate(24)" class="st35">
		<path id="path326" inkscape:connector-curvature="0" class="st11" d="M212.2,209h16.9l0-28.8l0.1,28.8h4.1l0-11.8l0.1,11.8h4.1
			l0-5.8l0.1,5.8h4.1l0-4.3l0.1,4.3h29.4l0-28.8l0.1,28.8h25.2l0,0"/>
	</g>
</g>
<g>
	<defs>
		<rect id="SVGID_51_" x="232" y="234.3" width="93" height="31.7"/>
	</defs>
	<clipPath id="SVGID_52_">
		<use xlink:href="#SVGID_51_"  style="overflow:visible;"/>
	</clipPath>
	<g id="g330" transform="translate(24,-6)" class="st36">
		<path id="path336" inkscape:connector-curvature="0" class="st11" d="M212.2,240.6l0.1-0.7l0.1,0.7l0-0.3l0,0.2l0-0.6l0.1,0.3
			l0.1-0.3l0,0.5l0.1-0.3l0.1,0.4l0.1-0.7l0.2,0.8l0.1-1l0,0.5l0.1-0.2l0,0.6l0-0.7l0.1,0.4l0,0.3l0-0.7l0.1,0.2l0.1-0.3l0,0.8
			l0-0.5l0,0.4l0.1-0.6l0.1,0.3l0-0.5l0,0.8l0.1-0.6l0.1,0.5l0-0.7l0,0.6l0.1,0.2l0-0.7l0.1,0.6l0-0.1l0-0.6l0,0.7l0.1-0.2l0.1-0.4
			l0,0.6l0.1-0.3l0,0.2l0-0.6l0.1,0.3l0.1,0.1l0-0.6l0,0.7l0.1-0.2l0.1-0.4l0,0.8l0.1-0.6l0.1,0.4l-0.1-0.7l0.1,0.6l0.1-0.6
			l-0.1,0.6l0.1-0.3l0.1,0.5l-0.1-0.8l0.1,0.6l0-0.5l0.1,0.6l0-0.3l0.1-0.3l0,0.6l0-0.4l0.1,0.5l-0.1-0.6l0.1,0.2l0-0.1l0,0.4l0-0.3
			l0,0.6l0-0.7l0.1,0.4l0.1-0.3l-0.1,0.6l0.1-0.5l0.1,0.5l0.1-0.6l0,0.2l0.1-0.4l0,0.7l0-0.2l0,0.4l0-0.8l0.1,0.2l0.1-0.3l0.1,0.8
			l0-0.3l0.1,0.2l-0.1-0.5l0.1,0.2l0.1-0.4l0,0.8l0.1-0.4l0.1,0.5l0-0.9l0,0.7l0-0.4l0,0.6l0.1-0.3l0.1,0.2l-0.1-0.6l0.1,0.4
			l0.1-0.3l0,0.5l0.1-0.3l0.1-0.2l0.1,0.6l0-0.7l0.1,0.3l0.1,0.4l-0.1-0.7l0.1,0.5l0.1,0.5l0.1-1l0,0.8l0.1-0.4l0-0.3l0.1,0.5l0-0.3
			l0.1,0.3l0-0.6l0,0.4l0.1-0.3l0,0.7l0.1-0.7l0,0.4l0-0.6l0.1,0.3l0-0.5l0.1,0.7l0.1-0.2l0.1,0.3l0-0.5l0,0.3l0.1,0.3l-0.1-0.6
			l0.1,0.5l0-0.7l0,0.8l0.1-0.5l0.1,0.4l0-0.6l0,0.3l0.1-0.4l-0.1,0.6l0.1-0.5l0,0.5l0.1-0.4l0-0.2l0.1,0.7l0-0.4l0.1,0.6l-0.1-0.9
			l0.1,0.5l0-0.4l0,0.7l0.1-0.4l0.1,0.4l-0.1-0.6l0.1,0.5l0.1-0.6l0,0.7l0.1-0.6l0,0.7l0.1-0.9l0,0.5l0,0.3l0.1-0.8l0.2,0.9l0.1-0.9
			l0,0.6l0,0l0.1-0.5l0,0.7l0.1-0.3l0-0.2l0,0.3l0-0.2l0,0.5l0.1-0.7l0,0.6l0.1-0.6l-0.1,0.6l0.1-0.4l0,0.5l0.1-0.8l0.1,0.5l0.1-0.4
			l0,0.6l0.1-0.4l0,0.3l0.1-0.7l0,0.5l0.1-0.4l-0.1,0.6l0.1-0.5l0.1,0.6l0.1-0.7l0,0.3l0-0.2l0,0.5l0.1-0.3l0.1,0.5l-0.1-0.8
			l0.1,0.5l0.1-0.6l0,0.8l0-0.5l0.1,0.3l-0.1-0.6l0.1,0.4l0-0.5l0.1,0.7l0,0l0,0l0.1-0.5l0,0.5l0-0.2l0.1,0.3l-0.1-0.5l0.1,0.2
			l0.1-0.4l0,0.6l0-0.4l0-0.4l0,0.7l0.1-0.3l0.1,0.3l0-0.6l0.1,0.6l0-0.5l0.1,0.7l0-0.5l0,0.4l0-0.6l0.1,0.3l0.1,0.6l0-1l0,0.3
			l0.1-0.3l0,0.6l0-0.3l0,0.4l0.1-0.7l0.1,0.3l0,0.4l0-0.7l0.1,0.5l0.1-0.6l0,0.7l0-0.6l0,0.7l0.1-0.5l0.1-0.2l0.1,0.6l0,0.2
			l0.1-0.7l0.1,0.6l0.1-0.6l0,0.2l0.1,0.3l-0.1-0.5l0.1,0.3l0.1,0.4l0-0.6l0.1,0.5l-0.1-0.6l0.1,0.5l0.1-0.5l0,0.7l0.1-0.4l0.1,0.3
			l0-0.7l0,0.3l0.1-0.4l-0.1,0.7l0.1-0.2l0.1-0.5l0,0.7l0.1-0.4l0.1,0.5l0-0.7l0.1,0.4l0.1-0.5l-0.1,0.7l0.1-0.6l0.1,0.7l0-0.7
			l0.1,0.2l0-0.2l0,0.6l0.1-0.2l0.1,0.3l-0.1-0.7l0.1,0.3l0.1-0.3l0,0.6l0-0.1l0.1,0.2l-0.1-0.9l0.1,0.7l0.1-0.6l-0.1,1l0.1-0.9
			l0,0.8l0.1-0.1l0-0.6l0.1,0.3l0,0.4l0.1-0.6l0,0.3l0.1-0.3l-0.1,0.6l0.1-0.4l0.1,0.4l0-0.7l0.1,0.4l0.1-0.4l-0.1,0.6l0.1-0.5
			l0.1,0.5l-0.1-0.8l0.1,0.4l0.1,0.3l0-0.6l0,0.3l0-0.2l0,0.4l0-0.2l0,28.1l0.1-4.7l0.6-12l0,0.2l0.1-1.7l0,0.1l0,0l0.2-1.8l0,0.3
			l0.1-1.3l0,0.2l0.2-1.5l0,0.3l0.1-1.2l0,0.3l0.2-1.2l-0.1,1.2l0.1-1l0,0.2l0.1-0.9l0,0.3l0.1-1.1l0,0l0,0.7l0.1-1.1l0,0.4l0.1-0.8
			l0,0.2l0.1-0.7l-0.1,0.8l0.1-0.6l0.1,0.3l0-0.8l0.1,0.5l0.1-0.7l-0.1,0.7l0.1-0.4l0,0.3l0.1-0.6l0,0.3l0.2-0.6l-0.1,0.8l0.1-0.5
			l0,0l0-0.3l0,0.2l0-0.4l0,0.6l0.1-0.3l0.1-0.6l-0.1,0.8l0.1-0.7l0,0.5l0.1-0.6l0,0.3l0.1-0.4l0,0.6l0.1-0.3l0.1-0.5l0,0.6l0.1-0.3
			l0,0.3l0-0.8l0.1,0.6l0-0.4l0,0.5l0.1-0.2l0.1,0.3l-0.1-0.7l0.1,0.3l0-0.2l0,0.4l0-0.1l0,11.5l0.1-2.1l0,0.3l0.1-1.8l0,0.2
			l0.7-4.9l-0.7,5.1l0.7-5.1l0,0.4l0.1-1.1l0,0.2l0.1-0.8l-0.1,0.9l0.2-0.8l0.1,0.2l0-0.6l0,0.3l0.1,0.1l0.1-0.8l0.1,0.4l0-0.7
			l0,0.3l0.1-0.6l-0.1,0.7l0.2-0.5l0.1,0.3l0-0.6l0.1,0.4l0.2-0.6l-0.1,0.8l0.1-0.5l0,0.2l0-0.8l0.1,0.3l0.1-0.4l-0.1,0.7l0.1-0.5
			l0,0.3l0.1-0.5l0.1,0.4l0.1-0.6l0,0.7l0.1-0.4l0.1,0.3l-0.1-0.6l0.1,0.2l0.1-0.4l0,0.7l0.1-0.4l0.1-0.3l-0.1,0.6l0.1-0.5l0.1,0.5
			l0-0.7l0,0.4l0-0.1l0,0.1l0.1-0.4l0,0.6l0.1-0.5l0,0.4l0.1-0.6l0,0.5l0.1-0.5l0,0.7l0.1-0.4l0-0.4l0.1,0.7l0.1-0.4l0.1,0.4l0-0.6
			l0.1,0.5l0-0.6l0.1,6.2l0-0.2l0.6-3.2l-0.6,3.2l0.6-3.1l0,0.2l0.1-0.9l0,0.1l0.1,0.4l0-0.6l0,0.2l0.1-0.8l-0.1,0.9l0.1-0.2
			l0.1-0.9l0,0.1l0,0.4l0.1-0.7l0.1,0.1l0.1-0.2l-0.1,0.6l0.1-0.5l0,0.3l0-0.7l0.1,0.3l0.1-0.5l0,0.7l0.1-0.3l0.1,0.3l0-0.7l0.1,0.3
			l0.1-0.4l-0.1,0.6l0.1-0.5l0,0.4l0.1-0.6l0,0.2l0.1-0.3l0,0.5l0.1-0.3l0,0.4l0-0.8l0.1,0.6l0.1-0.5l0,0.6l0.1-0.3l0,0.4l0-0.6
			l0.1,0.4l0.1-0.5l0,0.6l0.1-0.4l0.1,0.5l0-0.7l0,0.1l0,0.5l0.1-0.7l0.1,0.5l0.1-0.5l0,0.6l0.1-0.4l0.1,0.3l0-0.6l0,0.6l0-0.5
			l0.1,0.6l0.1-0.3l0.1-0.2l0,0.5l0.1-0.4l0,0.4l0.1-0.6l0.1,0.4l0.1-0.5l0.1,0.7l0-0.6l0.2,4.5l-0.1-4.5l0.1,4.2l0.1-0.9l0,0.9
			l0-0.6l0.3-1.2l0.1,0.3l0-0.7l0,0.2l0,0.1l0.1-0.8l0,0.5l0.1-0.7l0,0.1l0.2-0.4l-0.1,0.7l0.1-0.7l0,0.3l0.1-0.5l0,0.4l0.1-0.6
			l-0.1,0.7l0.1-0.5l0,0.4l0.1-0.6l0.1,0.4l0.1-0.5l-0.1,0.6l0.1-0.4l0,0.4l0.1-1l0.1,0.7l0.1-0.6l-0.1,0.7l0.1-0.3l0.1,0.2l0-0.7
			l0,0.4l0-0.3l0,0.7l0.1-0.4l0.1,0.3l0-0.6l0,0.3l0.1-0.3l0,0.5l0.1-0.4l0.1,0.5l-0.1-0.6l0.1,0.5l0.1-0.6l-0.1,0.6l0.1-0.4l0,0.4
			l0.1-0.7l0,0.4l0.1-0.3l-0.1,0.6l0.1-0.3l0,0.3l0-0.6l0.1,0.3l0-0.6l0.1,0.7l0.1-0.4l0,0.4l0-0.5l0.1,0.5l0.1-0.5l-0.1,0.6
			l0.1-0.5l0,0.5l0.1-0.7l0,0.5l0.1-0.4l-0.1,0.5l0.1-0.3l0,0.4l0.1-0.6l0.1,0.4l0.1-0.5l0,0.9l0.1-0.7l0.1-0.4l0,0.9l0-0.4l0.1,0.3
			l0-0.6l0.1,0.4l0.1-0.4l0,0.6l0.1-0.3l0,0.3l0-0.6l0.1,0.3l0,0.3l0-0.5l0.1,0.4l0-0.5l0.1,0.6l0.1-0.3l0.1-0.2l0,0.6l0.1-0.3
			l0.1,0.4l-0.1-0.6l0.1,0.4l0.1-0.4l0,0.6l0.1-0.5l0,0.4l0.1-0.7l0,0.6l0-0.6l0.1,0.7l0-0.4l0,0.3l0.1-0.6l0.1,0.5l0.1-0.4
			l-0.1,0.6l0.1-0.3l0.1,0.4l0-0.6l0,0.5l0-0.5l0.1,0.7l0-0.4l0.1-0.3l0,0.5l0.1-0.3l0,0.4l0.1-0.7l0.1,0.4l0.1-0.6l0,0.8l0-0.4
			l0.1,0.5l0-0.8l0.1,0.3l0.1-0.3l0,0.7l0-0.4l0.1,0.2l0.1-0.4l0,0.6l0.1-0.7l0.1,0.6l0-0.5l0.1,0.5l0-0.3l0,0.5l0.1-0.8l0.1,0.7
			l0.1-0.6l0,0.6l0.1-0.1l0.1-0.4l0,0.6l0.1-0.5l0.1,0.4l0.1-0.7l0,0.6l0.1-0.4l0,0.8l0.1-0.7l0.1,0.6l-0.1-0.8l0.1,0.8l0-0.6
			l0.1,0.2l0,0.6l0-0.7l0.1,0.4l0.1,0.3l0.1-0.8l0.1,0.9l0-0.3l0-0.2l0.1-0.3l0,0.7l0-0.6l0.1-0.1l0,0.5l0.1-0.6l0.1,0.7l0-0.4
			l0.1,0.5l-0.1-0.6l0.1,0.1l0.1-0.2l0,0.6l0-0.5l0.1,0.5l-0.1-0.5l0.1,0.3l0-0.4l0,0.8l0.1-0.5l0,0.6l0.1-0.8l0,0.2l0.1,0.3l0-0.6
			l0.1,0.4l0-0.5l0.1,0.7l0.1-0.4l0-0.3l0,0.8l0.1-0.6l0.1,0.5l0-0.5l0.1,0.1l0.1-0.3l0.1,0.8l0-0.5l0,0.4l0-0.6l0.1,0.4l0.1-0.5
			l-0.1,0.7l0.1-0.4l0.1-0.3l0,0.7l0-0.4l0.1,0.4l0-0.9l0.1,0.8l0-0.6l0.1,0.8l0-0.3l0.1-0.5l-0.1,0.6l0.1-0.3l0.1,0.2l0-0.7l0,0.4
			l0-0.5l0,0.9l0.1-0.5l0.1-0.2l0,0.6l0-0.4l0.1,0.5l-0.1-0.7l0.1,0.2l0.1,0.5l0-0.8l0.1,0.3l0-0.3l0.1,0.7l0.1-0.3l0,0.3l0-0.7
			l0.1,0.7l0.1-0.7l0,0.4l0.1-0.4l-0.1,0.6l0.1-0.4l0.1,0.3l0-0.6l0.1,0.4l0.1,0.2l0.1-0.6l0-0.1l0.1,0.7l0.1-1l0.1,0.5l0,0.5
			l0.1-0.8l0.1,0.4l0.1-0.3l0,0.7l0-0.1l0.1-0.6l-0.1,0.7l0.1-0.2l0.1,0.3l-0.1-0.7l0.1,0.5l0.1,0.2l0-0.4l0.1,0.4l0.1-0.6l0,0.7
			l0-0.1l0-0.5l0,0.6l0.1-0.6l0.1,0.7l0.1-0.7l0,0.4l0.1-0.5l0,0.6l0.1-0.3l0,0.4l0.1-0.7l0,0.2l0.1-0.1l-0.1,0.7l0.1-0.6l0.1,0.5
			l0.1-0.5l0,0.4l0.1-0.6l-0.1,0.9l0.1-0.4l0,0.3l0-0.7l0.1,0.2l0.1-0.4l-0.1,0.9l0.1-0.5l0.1,0.3l0-0.7l0,0.3l0.1-0.3l-0.1,0.7
			l0.1-0.3l0,0.3l0.1-0.6l0,0.3l0,0.2l0-0.4l0,0.2l0.1,0.3l0.1-0.8l0,0.8l0.1-0.2l0.1-0.5l-0.1,0.6l0.1-0.1l0.1,0.2l0-0.5l0.1,0.3
			l0-0.4l0.1,0.7l0.1-0.5l0,0l0,0.2l0-0.1l0,0.5l0.1-0.8l0,0.5l0,0.2l0-0.8l0.1,0.6l0-0.6l0.1,0.9l0.1-0.5l0,0.5l0-0.7l0.1,0.2
			l0.1-0.3l-0.1,0.7l0.1-0.3l0.1,0.2l-0.1-0.5l0.1,0.1l0.1-0.2l0,0.6l0.1-0.4l0.1,0.4l0-0.5l0.1,0.2l0.1,0.4l-0.1-0.6l0.1,0.6l0-0.6
			l0.1,0.7l0,0l0-0.6l0,0.7l0.1-0.5l0,0.5l0.1-0.7l0.1,0.5l0.1-0.4l0,0.6l0.1-0.5l0,0.6l0.1-0.8l0,0.3l0-0.3l0,0.7l0.1-0.2l0,0
			l0-0.5l0.1,0.6l0.1-0.2l0.1,0.3l0-0.7l0.1,0.5l0.1-0.4l-0.1,0.7l0.1-0.5l0,0.4l0-0.5l0.1,0.2l0.1-0.4l0,0.9l0-0.6l0.1,0.5l0-0.8
			l0,0.3l0-0.3l0,0.6l0.1-0.5l0.1,0.6l0-0.8l0,0.6l0-0.6l0.1,0.7l0-0.5l0.1,0.5l-0.1-0.7l0.1,0.6l0-0.7l0.1,0.8l0-0.4l0.1,0.3l0-0.7
			l0.1,0.4l0.1,0.4l0-0.6l0.1,0.3l0.1-0.4l0,0.7l0.1-0.6l0.1,0.5l0-0.7l0,0.5l0-0.5l0,0.6l0.1-0.2l0,0.2l0-0.4l0,0.1l0-0.3l0,0.7
			l0.1-0.3l0.1,0.1l0-0.6l0,0.3l0.1-0.4l0,0.7l0.1-0.6l0.1,0.6l0-0.7l0,0.4l0,0.2l0.1-0.7l0,0.5l0.1-0.3l0,0.5l0.1-0.6l0,0.6
			l0.1-0.5l0.1,0.6l-0.1-0.7l0.1,0.3l0-0.2l0,0.4l0-0.1l0.1,0.2l0-0.6l0.1,0.5l0.1-0.5l-0.1,0.6l0.1-0.5l0.1,0.5l0-0.6l0,0.3
			l0.1-0.3l0,0.5l0.1-0.1l0,0.2l0-0.7l0.1,0.4l0.1-0.3l0,0.5l0-0.2l0.1-0.3l0,0.5l0-0.5l0,0.6l0.1-0.5l0,0.5l0.1-0.8l0,0.6l0.1-0.6
			l0.1,0.1l0.1,0.6l0-0.7l0.1,0.7l0.1-0.6l-0.1,0.6l0.1-0.5l0.1,0.5l0.1-0.6l0,0.2l0.1-0.2l-0.1,0.6l0.1-0.5l0.1,0.5l0-0.6l0.1,0.5
			l0-0.6l0.1,0.7l0.1-0.5l0,0.6l0.1-0.7l0,0.6l0.1-0.5l-0.1,0.6l0.1-0.4l0.1-0.2l-0.1,0.6l0.1-0.5l0.1,0.5l0.1-0.6l0,0.5l0.1-0.5
			l0.1,0.5l0-0.2l0.1,0.3l0-0.6l0,0.3l0.1-0.2l-0.1,0.5l0.1-0.3l0-0.2l0.1,0.5l0.1-0.8l0,0.9l0.1-0.7l0.1,0.5l0.1-0.6l0,0.5l0-0.5
			l0,0.7l0.1-0.3l0.1-0.3l-0.1,0.6l0.1-0.4l0,0.4l0.1-0.7l0,0.5l0.1,0.3l0-0.7l0.1,0.3l0.1-0.3l0,0.7l0-0.3l0,0.3l0-0.5l0,0.4l0-0.5
			l0.1,0.7l0-0.4l0.1-0.3l0,0.7l0-0.5l0.1,0.4l0-0.7l0,0.4l0.1-0.4l0,0.7l0-0.5l0.1-0.3l0,0.9l0.1-0.8l0,0.2l0.1,0.6l0-0.9l0.1,0.5
			l0.1-0.4l0,0.7l0-0.4l0.1-0.4l0,0.8l0-0.6l0,0.5l0-0.5l0.1,0.4l0.1-0.3l0,0.5l0-0.2l0,0.1l0-0.4l0.1,0.2l0-0.3l0.1,0.7l0-0.5
			l0.1,0.5l0-0.6l0.1,0.1l0-0.3l0.1,0.7l0-0.2l0-0.6l0,0.8l0.1-0.5l0,27.8l0.1-4.2l0,0l0-0.5l0,0.2l0.2-4.7l0,0l0,0l0-1.1l0,0
			l0.2-4.2l0.5-5.9l0,0.3l0,0.1l0.1-1.2l0,0.1l0.2-1.6l-0.2,1.7l0.2-1.6l0,0.1l0.1-1.1l0,0.2l0.1-0.9l-0.1,1l0.2-0.9l0,0.1l0.1-0.9
			l0,0.4l0.1-0.8l-0.1,0.9l0.1-0.8l0.2-0.8l-0.1,1l0.2-0.9l0,0.6l0.1-0.9l0.1,0.2l0-0.2l0,0.3l0,0l0.1-0.6l-0.1,0.7l0.1-0.6l0,0.5
			l0.1-0.8l0,0.1l0.1,0.4l0-0.7l0.1,0.3l0.1-0.5l0,0.6l0-0.5l0,0.3l0.1-0.7l0,0.4l0-0.4l0.1,0.6l0.1-0.3l0,0.3l0-0.6l0.1,0.2
			l0.1-0.5l-0.1,0.7l0.1-0.4l0,0.3l0.1-0.6l0.1,0.4l0.1-0.5l0,0.7l0.1-0.5l0.1,0.5l-0.1-0.7l0.1,0.4l0.1-0.5l0,0.6l0-0.3l0.1,0.4
			l-0.1-0.7l0.1,0.5l0.1-0.5l0.1,0.4l0.1,0.2l0-0.6l0.1,0.4l0.1-0.4l0,0.6l0.1-0.4l0,0.5l0.1-0.7l0,0.6l0.1,0.1l0.1-0.5l0.1,0.6
			l-0.1-0.7l0.1,0.4l0.1-0.3l-0.1,0.6l0.1-0.3l0.1,0.4l0-0.9l0.1,0.6l0.1,0.3l0-0.7l0,0.2l0-0.3l0.1,0.7l0-0.4l0.1,0.4l0-0.7l0,0.3
			l0-0.3l0.1,0.6l0-0.3l0.1,0.4l-0.1-0.6l0.1,0.3l0.1-0.5l0,0.6l0-0.2l0.1,0.4l0-0.8l0.1,0.3l0.1-0.3l0,0.6l0-0.4l0.1,0.5l-0.1-0.7
			l0.1,0.1l0,0l0.1,0.8l0.1-0.8l0,0.4l0-0.6l0,0.7l0.1-0.1l0-0.5l0,0.7l0.1-0.4l0.1,0.4l0-0.6l0.1,0.5l0.1-0.6l0,0.6l0.1-0.3
			l0.1,0.4l-0.1-0.8l0.1,0.6l0.1-0.5l0,0.9l0-0.5l0.1,0.2l-0.1-0.6l0.1,0.3l0-0.3l0,0.8l0.1-0.8l0.1,0.7l0-0.8l0.1,0.4l0,0.4
			l0.1-0.8l0.1,0.6l0-0.7l0,0.3l0-0.2l0,0.5l0-0.1l0,0.3l0.1-0.6l0.1,0.4l0.1-0.4l0,0.5l0.1-0.2l0.1,0.2l-0.1-0.6l0.1,0.3l0-0.4
			l0.1,0.6l0-0.3l0.1,0.2l0-0.5l0.1,0.4l0-0.5l0.1,0.8l0-0.3l0.1,0.5l-0.1-0.8l0.1,0.3l0,0l0.1,0.4l0-0.8l0.1,0.6l0-0.4l0,0.5
			l0.1-0.2l0,0.4l0-0.6l0.1,0.2l0.1-0.3l0,0.6l0-0.2l0.1-0.3l-0.1,0.4l0.1-0.3l0.1,0.4l0-0.6l0,0.4l0.1-0.5l0,0.8l0.1-0.5l0-0.2
			l0,0.6l0.1-0.5l0.1,0.7l0-0.9l0.1,0.5l0-0.5l0,0.6l0.1-0.5l0,0.6l0-0.7l0.1,0.3l0.1-0.2l0,0.5l0.1-0.3l0.1,0.4l0-0.8l0.1,0.3
			l0-0.2l0.1,0.8l0.1-0.7l0.1,0.6l0-0.6l0.1,0.4l0-0.5l0.1,0.7l0.1-0.3l0.1-0.5l0,0.6l0.1-0.2l0,0.2l0.1-0.4l0.1,0.3l0.1-0.5l0,0.6
			l0.1-0.4l0.1,0.4l0-0.5l0.1,0.3l0.1,0.3l-0.1-0.6l0.1,0.4l0.1-0.5l0,0.5l0.1-0.3l0,0.3l0.1-0.6l0,0.6l0.1-0.5l0,0.8l0-0.4l0.1,0.1
			l0-0.7l0.1,0.7l0-0.4l0.1,0.6l0-0.3l0,0.2l0-0.5l0,0.2l0-0.3l0.1,0.7l0-0.6l0.1,0.6l-0.1-0.7l0.1,0.5l0.1-0.4l0,0.9l0.1-0.6
			l0.1,0.3l0-0.6l0.1,0.2l0-0.2l0.1,0.6l0.1-0.5l0.1,0.6l-0.1-0.7l0.1,0.5l0.1-0.5l0,0.7l0-0.3l0.1,0.2l0-0.5l0,0.3l0.1-0.3l0,0.6
			l0.1-0.4l0,0.4l0.1-0.7l0.1,0.3l0.1-0.5l0,0.8l0-0.4l0.1,0.4l0-0.6l0,0.3l0.1,0.4l0-0.8l0.1,0.5l0.1-0.4l0,0.6l0-0.4l0.1,0.5
			l0-0.7l0.1,0.6l0-0.6l0,0.7l0.1-0.4l0.1,0.4l-0.1-0.6l0.1,0.3l0-0.4l0,0.6l0.1-0.3l0.1,0.5l0-0.7l0,0.1l0.1,0.6l0-0.7l0.1,0.5
			l0-0.4l0.1,0.5l0-0.4l0,0.4l0.1-0.6l0,0.2l0.1,0.6l0-0.9l0.1,0.5l0-0.3l0.1,0.5l0-0.2l0,0.3l0-0.6l0,0.3l0-0.4l0,1l0.1-0.5l0,0.3
			l0.1-0.8l0,0.6l0-0.3l0,0.7l0.1-0.5l0.1,0.4l0-0.8l0.1,0.4l0,0.4l0.1-0.6l0.1,0.6l0-0.6l0.1,0.7l0-0.8l0.1,0.4l0.1-0.3l-0.1,0.6
			l0.1-0.3l0,0.3l0-0.6l0.1,0.2l0-0.4l0,0.8l0.1-0.4l0.1-0.4l0.1,0.8l0-0.7l0.1,0.2l0.1,0.4l0-0.7l0.1,0.5l0.1-0.5l0,0.7l0-0.5
			l0.1,0.7l0-0.8l0.1,0.2l0,0.2l0-0.3l0,0.1l0-0.2l0,0.7l0.1-0.4l0-0.3l0.1,0.7l0.2-0.9l0,0.8l0.1-0.2l0.1-0.3l0,0.6l0-0.4l0,0.4
			l0-0.6l0.1,0.2l0.1-0.3l0,0.7l0-0.3l0.1,0.2l0-0.6l0.1,0.5l0-0.5l0.1,0.7l0.1-0.4l0.1,0.2l-0.1-0.6l0.1,0.6l0-0.7l0,0.8l0.1-0.2
			l0-0.4l0,0.6l0.1-0.6l0,0.6l0-0.7l0.1,0.4l0.1-0.5l-0.1,0.7l0.1-0.3l0.1-0.3l0,0.6l0.1-0.3l0.1,0.3l0-0.7l0,0.4l0.1-0.3l0,0.6
			l0.1-0.6l0.1,0.5l-0.1-0.7l0.1,0.3l0,0.5l0-0.7l0.1,0.4l0-0.4l0.1,0.6l0.1-0.5l0.1,0.7l-0.1-0.8l0.1,0.4l0.1-0.4l0,0.7l0.1-0.5
			l0,0.4l0.1-0.6l0,0.6l0.1-0.4l-0.1,0.6l0.1-0.4l0.1,0.5l0-0.6l0.1,0.1l0.1-0.2l0,0.5l0-0.2l0.1,0.4l0.1-0.7l0,0.3l0,0l0.1,0.5
			l0-0.8l0.1,0.3l0.1,0.3l0-0.6l0.1,0.6l0-0.6l0,0.7l0.1-0.2l0.1-0.4l0,0.6l0.1-0.7l0,0.7l0-0.3l0.1-0.4l0,0.6l0.1-0.2l0,0.3l0-0.7
			l0.1,0.5l0.1-0.5l0,0.7l0-0.3l0.1,0.1l0-0.5l0.1,0.6l0-0.6l0.1,0.4l0.1-0.5l0,0.8l0-0.3l0,0.2l0-0.5l0.1,0.3l0-0.4l0.1,0.5l0-0.3
			l0,0.4l0.1-0.6l0,0.2l0.1,0.5l-0.1-0.8l0.1,0.2l0.1-0.2l-0.1,0.6l0.1-0.6l0,0.6l0-0.8l0.1,0.2"/>
	</g>
</g>
<g>
	<defs>
		<rect id="SVGID_53_" x="349.5" y="36.2" width="93" height="31.7"/>
	</defs>
	<clipPath id="SVGID_54_">
		<use xlink:href="#SVGID_53_"  style="overflow:visible;"/>
	</clipPath>
	<g id="g340" transform="translate(7.5)" class="st37">
		<path id="path346" inkscape:connector-curvature="0" class="st6" d="M346.2,52.4l16.9-0.2l0-16l0.1,0.4l1.6,3.7l1.6,3l1.6,2.5
			l1.7,2l1.8,1.6l1.9,1.3l2,1.1l2.2,0.8l2.5,0.6l3,0.4l3.7,0.2l5.2,0l9.4-0.4l19.3-0.8l10-0.2l0,0"/>
	</g>
</g>
<text transform="matrix(1 0 0 1 366.8823 26.1875)" class="st2 st9 st4">STF &amp; STD</text>
<g>
	<defs>
		<rect id="SVGID_55_" x="349.5" y="83.7" width="93" height="31.7"/>
	</defs>
	<clipPath id="SVGID_56_">
		<use xlink:href="#SVGID_55_"  style="overflow:visible;"/>
	</clipPath>
	<g id="g356" transform="translate(7.5)" class="st38">
		<path id="path362" inkscape:connector-curvature="0" class="st11" d="M346.2,108.5h16.9l0-16.5l0.1,0.8l1.1,5.1l1.1,3.8l1.1,2.8
			l0.7,1.4l0-16.5l0.1,1l1.1,6.5l1.1,4.8l1.1,3.5l0.8,2l0-16.5l0.1,1.1l1.1,6.8l1.1,4.9l1.1,3.5l0.9,2.2l0-16.5l0.1,1.1l1.1,6.7
			l1.1,4.8l1,3.4l1,2.4l1,1.7l1,1.1l1,0.7l1.1,0.4l1.3,0.1l1.6-0.1l2.2-0.5l5.5-1.8l4.5-1.2l4.4-0.9l1.7-0.3l0-16.5l0.1,0.8l1.1,4.9
			l1.1,3.6l1.1,2.6l1.1,1.9l1.1,1.4l1.2,1l1.3,0.7l1.5,0.4l1.8,0.2l2.4-0.1l4.2-0.5l7.5-0.8l0,0"/>
	</g>
</g>
<g>
	<defs>
		<rect id="SVGID_57_" x="349.5" y="83.7" width="93" height="31.7"/>
	</defs>
	<clipPath id="SVGID_58_">
		<use xlink:href="#SVGID_57_"  style="overflow:visible;"/>
	</clipPath>
	<g id="g366" transform="translate(7.5)" class="st39">
		<path id="path372" inkscape:connector-curvature="0" class="st13" d="M346.2,103h84.5l0,0"/>
	</g>
</g>
<g>
	<defs>
		<rect id="SVGID_59_" x="349.5" y="131.2" width="93" height="31.7"/>
	</defs>
	<clipPath id="SVGID_60_">
		<use xlink:href="#SVGID_59_"  style="overflow:visible;"/>
	</clipPath>
	<g id="g376" transform="translate(7.5)" class="st40">
		<path id="path382" inkscape:connector-curvature="0" class="st11" d="M346.2,158.4h16.9l0-25.4l0.1,0.2l0.5,0.8l0.5,1.6l0.6,3.1
			l2.5,15.3l0-21.3l0.1,0.1l0.4,0.5l0.4,1l0.4,1.9l0.6,4l1.8,14.4l0.4,1.7l0-23.5l0.1,0.1l0.4,0.7l0.4,1.4l0.4,2.9l0.7,6.9l1,9
			l0.6,3.3l0.6,1.8l0-25.7l0.1,0.3l0.4,1.2l0.4,2.6l0.6,5.9l1.1,11.4l0.6,3.2l0.6,1.7l0.6,0.9l0.7,0.6l1,0.4l1.5,0.2l2.8,0.1
			l4.8-0.2l6.2-0.6l8.2-0.9l0-26.4l0.1,0.3l0.4,1.3l0.5,2.6l0.8,5.7l1.2,8.5l0.8,3.3l0.7,2l0.8,1.2l0.9,0.8l1,0.6l1.3,0.4l1.9,0.2
			l2.9,0l5-0.3l6.9-0.6l0,0"/>
	</g>
</g>
<g>
	<defs>
		<rect id="SVGID_61_" x="349.5" y="131.2" width="93" height="31.7"/>
	</defs>
	<clipPath id="SVGID_62_">
		<use xlink:href="#SVGID_61_"  style="overflow:visible;"/>
	</clipPath>
	<g id="g386" transform="translate(7.5)" class="st41">
		<g id="g392" transform="translate(270.10037,98.453041)">
			<g id="g394">
				<g>
					<defs>
						<rect id="SVGID_63_" x="91.7" y="58.6" width="2.7" height="2.7"/>
					</defs>
					<clipPath id="SVGID_64_">
						<use xlink:href="#SVGID_63_"  style="overflow:visible;"/>
					</clipPath>
					<g id="g396" class="st42">
						<path id="path402" inkscape:connector-curvature="0" class="st18" d="M93,60.6c0.2,0,0.3-0.1,0.5-0.2c0.1-0.1,0.2-0.3,0.2-0.5
							s-0.1-0.3-0.2-0.5c-0.1-0.1-0.3-0.2-0.5-0.2c-0.2,0-0.3,0.1-0.5,0.2c-0.1,0.1-0.2,0.3-0.2,0.5s0.1,0.3,0.2,0.5
							C92.7,60.5,92.9,60.6,93,60.6z"/>
					</g>
				</g>
			</g>
			<g id="g404" transform="translate(3.1707716,3.3011199)">
				<g id="g406">
					<g>
						<defs>
							<rect id="SVGID_65_" x="92.8" y="50.9" width="2.7" height="2.7"/>
						</defs>
						<clipPath id="SVGID_66_">
							<use xlink:href="#SVGID_65_"  style="overflow:visible;"/>
						</clipPath>
						<g id="g408" class="st43">
							<path id="path414" inkscape:connector-curvature="0" class="st18" d="M94.1,52.9c0.2,0,0.3-0.1,0.5-0.2
								c0.1-0.1,0.2-0.3,0.2-0.5c0-0.2-0.1-0.3-0.2-0.5c-0.1-0.1-0.3-0.2-0.5-0.2c-0.2,0-0.3,0.1-0.5,0.2c-0.1,0.1-0.2,0.3-0.2,0.5
								c0,0.2,0.1,0.3,0.2,0.5C93.7,52.8,93.9,52.9,94.1,52.9z"/>
						</g>
					</g>
				</g>
				<g id="g416" transform="translate(3.1707716,-1.717454)">
					<g id="g418">
						<g>
							<defs>
								<rect id="SVGID_67_" x="93.8" y="54.9" width="2.7" height="2.7"/>
							</defs>
							<clipPath id="SVGID_68_">
								<use xlink:href="#SVGID_67_"  style="overflow:visible;"/>
							</clipPath>
							<g id="g420" class="st44">
								<path id="path426" inkscape:connector-curvature="0" class="st18" d="M95.1,56.9c0.2,0,0.3-0.1,0.5-0.2
									c0.1-0.1,0.2-0.3,0.2-0.5s-0.1-0.3-0.2-0.5c-0.1-0.1-0.3-0.2-0.5-0.2c-0.2,0-0.3,0.1-0.5,0.2c-0.1,0.1-0.2,0.3-0.2,0.5
									s0.1,0.3,0.2,0.5C94.8,56.8,95,56.9,95.1,56.9z"/>
							</g>
						</g>
					</g>
					<g id="g428" transform="translate(3.1707716,-1.911671)">
						<g id="g430">
							<g>
								<defs>
									<rect id="SVGID_69_" x="94.9" y="59.3" width="2.7" height="2.7"/>
								</defs>
								<clipPath id="SVGID_70_">
									<use xlink:href="#SVGID_69_"  style="overflow:visible;"/>
								</clipPath>
								<g id="g432" class="st45">
									<path id="path438" inkscape:connector-curvature="0" class="st18" d="M96.2,61.3c0.2,0,0.3-0.1,0.5-0.2
										c0.1-0.1,0.2-0.3,0.2-0.5c0-0.2-0.1-0.3-0.2-0.5c-0.1-0.1-0.3-0.2-0.5-0.2c-0.2,0-0.3,0.1-0.5,0.2
										c-0.1,0.1-0.2,0.3-0.2,0.5c0,0.2,0.1,0.3,0.2,0.5C95.9,61.3,96,61.3,96.2,61.3z"/>
								</g>
							</g>
						</g>
						<g id="g440" transform="translate(22.195401,-0.73954968)">
							<g id="g442">
								<g>
									<defs>
										<rect id="SVGID_71_" x="102.3" y="61.1" width="2.7" height="2.7"/>
									</defs>
									<clipPath id="SVGID_72_">
										<use xlink:href="#SVGID_71_"  style="overflow:visible;"/>
									</clipPath>
									<g id="g444" class="st46">
										<path id="path450" inkscape:connector-curvature="0" class="st18" d="M103.6,63.1c0.2,0,0.3-0.1,0.5-0.2
											c0.1-0.1,0.2-0.3,0.2-0.5c0-0.2-0.1-0.3-0.2-0.5c-0.1-0.1-0.3-0.2-0.5-0.2s-0.3,0.1-0.5,0.2c-0.1,0.1-0.2,0.3-0.2,0.5
											c0,0.2,0.1,0.3,0.2,0.5C103.3,63,103.4,63.1,103.6,63.1z"/>
									</g>
								</g>
							</g>
						</g>
					</g>
				</g>
			</g>
		</g>
	</g>
</g>
<g>
	<defs>
		<rect id="SVGID_73_" x="349.5" y="178.7" width="93" height="31.7"/>
	</defs>
	<clipPath id="SVGID_74_">
		<use xlink:href="#SVGID_73_"  style="overflow:visible;"/>
	</clipPath>
	<g id="g454" transform="translate(7.5)" class="st47">
		<path id="path460" inkscape:connector-curvature="0" class="st11" d="M346.2,209h16.9l0-12.8l0.1,12.8h4.1l0-28.8l0.1,28.8h4.1
			l0-20.5l0.1,20.5h4.1l0-11.2L376,209h29.4l0-7.6l0.1,7.6h25.2l0,0"/>
	</g>
</g>
<g>
	<defs>
		<rect id="SVGID_75_" x="349.5" y="234.3" width="93" height="31.7"/>
	</defs>
	<clipPath id="SVGID_76_">
		<use xlink:href="#SVGID_75_"  style="overflow:visible;"/>
	</clipPath>
	<g id="g464" transform="translate(7.5,-6)" class="st48">
		<path id="path470" inkscape:connector-curvature="0" class="st11" d="M346.2,240.3l0-0.6l0,0.9l0.1-0.5l0.1,0.6l0-0.6l0,0.4l0-0.4
			l0.1,0.6l0.1-0.5l0.1,0.5l0-0.6l0.1,0.3l0.1-0.3l0.1,0.6l0.1-0.6l0,0.4l0,0.2l0.1-0.5l0,0.6l0-0.8l0.1,0.4l0.1-0.3l0,0.6l0-0.4
			l0,0.4l0-0.7l0.1,0.4l0,0.4l0-0.6l0.1,0.1l0-0.3l0,0.9l0.1-0.5l0.1-0.5l-0.1,0.7l0.1-0.3l0.1,0.5l0.1-0.7l0,0.6l0.2-0.7l0.1,0.8
			l0.1-0.5l0.1,0.4l-0.1-0.5l0.1,0.3l0-0.4l0,0.6l0.1-0.4l0.1,0.5l0.1-0.2l0-0.4l0.1,0.6l0-0.3l0,0.3l0.1-0.5l0.1,0.4l0.1-0.6
			l0.1,0.4l0.1,0.3l0.1-0.5l0,0.2l0.1-0.2l-0.1,0.7l0.1-0.6l0.1,0.6l0.1-0.6l0,0.3l0.1-0.3l0,0.6l0.1-0.3l0,0.2l0-0.4l0,0.1l0.1-0.3
			l0,0.8l0-0.6l0.1,0.5l0-0.9l0.1,0.7l0-0.6l0.1,0.7l0.1-0.5l0.1,0.5l0.1-0.8l0,0.7l0.1-0.5l0,0.5l0.1-0.3l0.1,0.4l-0.1-0.7l0.1,0.4
			l0-0.5l0,0.7l0.1-0.5l0,0.5l0.1-0.6l0,0.3l0.1-0.4l-0.1,0.5l0.1-0.4l0,0.5l0-0.7l0.1,0.2l0.1,0.4l0-0.8l0.1,0.6l0.1-0.5l0,0.7
			l0.1-0.2l0,0.2l0-0.6l0.1,0.6l0-0.7l0.1,0.7l0-0.4l0.1,0.3l0-0.5l0,0.2l0.1-0.3l0,0.7l0-0.6l0.1,0.6l0.1-0.6l0,0.4l0.1-0.6
			l-0.1,0.7l0.1-0.2l0.1,0.4l0.1-0.7l0,0.4l0-0.5l0.1,0.7l0-0.4l0-0.3l0.1,0.7l0-0.7l0.1,0.3l0,0.2l0-0.5l0.1,0.5l0.1-0.5l0.1,0.8
			l0-0.6l0,0.6l0-0.7l0.1,0.1l0.1,0.4l0-0.5l0.1,0.4l0.1-0.5l0,0.7l0-0.5l0.1,0.8L354,240l0.1,0.3l0.1,0.4l0-0.6l0,0.2l0-0.4l0,0.6
			l0.1-0.3l0-0.3l0.1,0.6l0.1-0.4l0.1,0l0,0.5l0.1-0.4l0.1,0.4l0-0.6l0,0.5l0-0.6l0.1,0.9l0-0.4l0-0.4l0.1,0.5l0-0.1l0,0.3l0.1-0.8
			l0.1,0.3l0.1-0.4l-0.1,0.7l0.1-0.2l0.1,0.2l-0.1-0.6l0.1,0.4l0.1-0.5l-0.1,0.7l0.1-0.2l0.1,0.3l-0.1-0.8l0.1,0.5l0.1-0.5l0,0.7
			l0.1-0.5l0,0.3l0-0.4l0.1,0.2l0.1-0.2l0,0.6l0-0.3l0,0.4l0.1-0.7l0,0.3l0-0.2l0.1,0.7l0-0.4l0,0.4l0.1-0.6l0,0.3l0-0.3l0,0.6
			l0.1-0.3l0.1,0.4l0-0.9l0.1,0.5l0.1-0.4l-0.1,0.7l0.1-0.3l0.1-0.3l-0.1,0.5l0.1-0.4l0.1,0.6l-0.1-0.7l0.1,0.4l0.1-0.5l0,0.5
			l0.1-0.5l0,0.7l0-0.8l0.1,0.4l0.1-0.2l0,0.6l0-0.5l0.1,0.6l-0.1-0.6l0.1,0.1l0.1,0.4l0-0.7l0.1,0.3l0.1-0.2l0,0.9l0,0l0.1-0.9
			l0.1,0.3l0.1,0.4l-0.1-0.6l0.1,0.2l0.1,0.3l-0.1-0.5l0.1,0.4l0.1-0.4l0,0.7l0.1-0.4l0.1-0.3l-0.1,0.7l0.1-0.4l0,0.4l0.1-0.7
			l0.1,0.3l0.1,0.2l0-0.4l0,0.2l0-0.2l0,0.5l0.1-0.1l0.1-0.5l-0.1,0.6l0.1-0.5l0.1,0.5l0-0.7l0,0.7l0.1-0.6l0,0.6l0.1-0.2l0.1-0.4
			l0.1,0.8l0.1-0.8l0.1,0.1l0,0.7l0.1-0.8l0,0.2l0-0.3l0.1,0.8l0.1-0.5l0.1,0.4l-0.1-0.7l0.1,0.4l0.1-0.5l-0.1,0.6l0.1-0.3l0.1,0.5
			l-0.1-0.7l0.1,0.3l0.1-0.2l0,0.5l0.1-0.3l0.1,0.5l0-0.7l0,0.3l0,0.3l0-0.7l0.1,0.6l0-0.4l0.1,0.6l0.1-0.5l0.1,0.5l0-0.6l0.1,0.2
			l0.2,0.5l-0.1-0.7l0.1,0.6l0.1,0.1l-0.1-0.7l0.1,0.2l0.1,0.4l0.1-0.6l0,0.6l0.1-0.6l0.1,0.3l0-0.4l0,0.7l0.1-0.6l0.1,0.5l0-0.6
			l0,0.4l0.1-0.3l-0.1,0.5l0.1-0.2l0,0.4l0-0.8l0.1,0.4l0.1-0.3l0,0.6l0.1,0l0.2-0.5l-0.1,0.5l0.1-0.3l0.1,3.9l-0.1-4.3l0.2,3.6
			l0.1-0.9l-0.1,1.1l0.1-0.7l0.2-1.1l-0.1,1.2l0.1-0.7l0.1,0.4l0.1-1.1l0,0.6l0.1-0.8l0,0.2l0,0.3l0.1-0.7l0.1,0.5l0.1-0.8l-0.1,0.8
			l0.1-0.5l0,0.4l0.1-0.9l0,0.3l0,0.4l0.1-0.9l0.1,0.6l0.1-0.9l0,1l0-0.2l0.1,0.2l0-0.6l0.1,0.5l0.1-0.7l0.1,0.2l0,0.5l0.1-0.8
			l0.1,0.4l0.1-0.4l-0.1,0.7l0.1-0.3l0.1-0.3l0,0.5l0-0.2l0,0.4l0.1-0.8l0,0.2l0,0.5l0.1-0.7l0,0.4l0-0.4l0.1,0.5l0-0.3l0,0.3
			l0.1-0.7l0.1,0.2l0.1,0.6l0-0.7l0.1,0.6l0.1-0.6l-0.1,0.6l0.1-0.6l0.1,0.7l0.1-0.7l0,0.5l0.1-0.5l0,0.7l0.1-0.7l0,0l0,0.6l0.1-0.4
			l0,0.3l0.1-0.7l0,0.3l0.1-0.2l0,0.7l0.2-0.9l0,0.9l0.1-0.6l0.1,0.3l0-0.5l0.1,0.2l0-0.1l0,0.5l0-0.2l0,8.7l0.1-1.5l0.2-1.9
			l-0.2,1.9l0.2-1.6l0,0l0-0.6l0.2-1l-0.2,1.2l0.2-1.1l0,0.1l0.1-0.9l0,0.3l0.1-0.7l-0.1,0.9l0.1-0.7l0,0l0-0.5l0,0.1l0.1-0.5
			l-0.1,0.8l0.1-0.7l0,0.3l0.1-0.7l0,0.1l0,0.4l0.1-0.9l0,0.5l0.1-0.8l0,0l0,0.4l0,0l0,0.1l0.1-0.7l0.1,0.3l0.1-0.6l-0.1,0.7
			l0.1-0.4l0.1,0.2l0-0.7l0.1,0.4l0.1-0.7l0,0.9l0.1-0.7l0.1,0.4l0-0.5l0.1,0.2l0.1-0.3l-0.1,0.7l0.1-0.4l0,0.3l0.1-0.5l0.1,0.2
			l0.1-0.4l-0.1,0.7l0.1-0.5l0,0.6l0.1-0.8l0,0.3l0.1-0.3l0,0.7l0.1-0.6l0.1,0.5l0-0.6l0.1,0.2l0.1-0.4l0,0.7l0-0.6l0,0.5l0-0.6
			l0.1,0.5l0.1,0.2l0.1-0.7l0,0.6l0-0.6l0.1,0.5l0.1-0.5l0,0.4l0-0.4l0,0.7l0.1-0.6l0.1,0.7l0-0.8l0.1,0.2l0-0.2l0,0.4l0,5.8l0.1-1
			l0,0.4l0.1-1.1l0,0l0.1,0.1l0-0.6l0,0.1l0,0.4l0.1-1.2l0,0.3l0.1-0.8l0,0.4l0.1-0.9l-0.1,1l0.1-0.8l0,0.3l0.1-0.8l0,0.1l0,0.3
			l0.1-0.6l0,0.3l0.1-0.6l-0.1,0.8l0.1-0.3l0-0.6l0.1,0.3l0,0l0-0.4l0,0.3l0,0l0.1-0.8l0.1,0.6l0-0.6l0.1,0.4l0.1-0.6l-0.1,0.8
			l0.1-0.7l0.1,0.4l-0.1-0.7l0.1,0.3l0.1-0.4l-0.1,0.9l0.1-0.5l0.1-0.5l0,0.7l0-0.2l0,0.1l0-0.8l0.1,0.4l0.1-0.4l0,0.5l0-0.2l0,0.2
			l0.1-0.7l0.1,0.4l0.1-0.6l-0.1,0.8l0.1-0.5l0.1,0.3l0.1-0.4l0,0.3l0-0.6l0,0.8l0.1-0.4l0.1,0.4l0-0.7l0.1,0.6l0.1-0.7l-0.1,0.9
			l0.1-0.3l0.1-0.5l0,0.7l0.1-0.4l0.1,0.3l0-0.6l0.1,0.3l0.1-0.3l-0.1,0.6l0.1-0.5l0.1,0.4l0-0.7l0.1,0.3l0.1-0.2l0,0.7l0.1-0.5
			l0.1,3.6l-0.1-3.7l0.2,3.2l0.1-0.7l-0.1,0.9l0.1-0.7l0,0.2l0.1-0.7l0,0.1l0,0.4l0.1-1l0.1,0.4l0-0.6l0,0.2l0.1,0.2l0-0.6l0,0.7
			l0.1-1l0.1,0.2l0.1-0.4l-0.1,0.8l0.1-0.4l0,0.2l0.1-0.7l0,0.2l0-0.2l0,0.6l0.1-0.4l0.1,0.3l0-0.7l0.1,0.7l0.1-0.7l0.1,0.5l0.1,0
			l0-0.5l0.1,0.1l0.1-0.2l0,0.7l0.1-0.4l0.1,0.3l0-0.7l0.1,0.3l0,0.1l0.1-0.4l0.1,0.5l0-0.6l0,0.2l0.1,0.5l0-0.8l0.1,0.2l0.1-0.2
			l0,0.6l0-0.5l0,0.4l0.1-0.6l0,0.4l0-0.4l0,0.7l0.1-0.4l0,0.3l0-0.5l0.1,0.1l0-0.2l0.1,0.7l0.1-0.5l0.1,0.6l0-0.7l0.1,0.3l0.1-0.3
			l0,0.5l0.1-0.2l0.1,0.4l-0.1-0.7l0.1,0.2l0.1,0.4l0-0.6l0,0.2l0.1,0.3l0-0.4l0.1,0.4l0-0.5l0.1,0.4l0-0.4l0.1,0.5l0-0.2l0.1,0.4
			l-0.1-0.7l0.1,0.3l0.1-0.3l-0.1,0.5l0.1-0.2l0.1,0.2l0-0.5l0.1,0.1l0-0.2l0,0.6l0.1-0.5l0.1,0.6l0-0.7l0,0.3l0.1-0.2l0,0.6
			l0.1-0.4l0.1-0.2l0,0.6l0.1-0.8l0,0.8l0.1-0.2l0.1-0.6l0,0.7l0-0.4l0.1,0.4l0-0.7l0.1,0.5l0-0.5l0,0.6l0.1-0.4l0.1,0.5l-0.1-0.7
			l0.1,0.6l0.1-0.5l0,0.6l0.1-0.1l0.1-0.6l0,0.5l0,0.3l0-0.6l0.1,0.5l0.1,0.2l0.1-0.7l0.1,0.5l0-0.5l0,0.3l0.1-0.4l0,0.7l0.1-0.4
			l0.1,0.4l0-0.8l0.1,0.5l0.1-0.3l0,0.6l0-0.4l0.1,0.3l-0.1-0.6l0.1,0.5l0-0.4l0,0.6l0.1-0.3l0.1-0.4l0.1,0.8l0.1-0.6l0.1,0.2
			l0.1,0.4l0-0.8l0.1,0.5l0-0.3l0,0.6l0.1-0.3l0,0.4l0-0.8l0.1,0.4l0.1-0.3l-0.1,0.6l0.1-0.3l0,0.2l0.1-0.5l0,0.3l0-0.1l0,0.2l0,0.4
			l0.1-0.8l0,0.5l0.1-0.5l0,0.7l0.1-0.5l0,0l0,0.7l0.1-0.4l0,0.2l0-0.6l0.1,0.5l0.1-0.3l-0.1,0.7l0.1-0.4l0,0.2l0-0.4l0,0l0,0.6
			l0-0.8l0.1,0.5l0.1-0.5l0,0.6l0-0.3l0.1,0.5l0-0.7l0.1,0.3l0.1-0.4l-0.1,0.8l0.1-0.4l0,0.4l0-0.9l0.1,0.4l0-0.4l0,0.5l0.1-0.2
			l0,0.3l0.1-0.5l0.1,0.3l0.1-0.4l-0.1,0.6l0.1-0.5l0.1,0.5l0-0.1l0.1-0.4l0,0.6l0.1-0.5l0.1,0l0,0.5l0-0.7l0.1,0.8l0-0.5l0.1-0.2
			l0.1,0.8l0.1-0.7l0,0.3l0.1-0.5l0,0.9l0-0.7l0.1,0.1l0.1,0l-0.1,0.6l0.1-0.4l0,0.4l0.1-0.6l0,0.2l0-0.3l0,0.6l0.1-0.4l0.1,0.5
			l0-0.8l0,0.8l0-0.7l0.1,0.3l0,0.5l0.1-0.6l0,0.6l0-0.7l0.1,0.7l0.1-0.3l0.1-0.6l-0.1,0.9l0.1-0.6l0,0.5l0-0.6l0.1,0.4l0-0.6
			l0.1,0.8l0-0.7l0,0.6l0.1-0.4l0.1,0.4l0-0.6l0,0.5l0.1-0.5l0,0.5l0.1-0.4l0.1,0.6l0-0.6l0.1,0.6l0.1-0.6l0,0.5l0.1-0.6l0,0.8
			l0-0.5l0.1-0.1l0,0.6l0-0.7l0.1,0.1l0.1,0.6l0.1-0.7l0,0.4l0.1-0.4l-0.1,0.6l0.1-0.4l0.1,0.6l0-0.8l0.1,0.4l0.1,0.3l0-0.7l0.1,0.7
			l0.1-0.3l0.1-0.5l-0.1,0.6l0.1-0.2l0,0.3l0-0.7l0.1,0.4l0.1-0.3l0,0.7l0.1-0.6l0.1,0.4l-0.1-0.6l0.1,0.5l0-0.6l0,0.6l0.1-0.3
			l0.1,0.4l0-0.6l0,0.3l0.1-0.4l0.1,0.7l0-0.5l0.1,0.6l0-0.2l0.1-0.4l0,0.6l0.1-0.3l0,0.4l0.1-0.7l0.1,0.6l0-0.7l0.1,0.3l0.1,0.5
			l-0.1-0.7l0.1,0.3l0.1-0.3l0,0.7l0.1-0.5l0.1,0.4l0-0.6l0.1,0.5l0.1,0.1l-0.1-0.6l0.1,0.4l0.1-0.4l0,0.7l0-0.4l0-0.2l0,0.6
			l0.1-0.4l0.1,0.3l0-0.6l0,0.5l0-0.6l0,0.7l0.1-0.3l0.1,0.3l0-0.5l0,0.1l0.1-0.3l0,0.7l0.1-0.4l0.1,0.3l0-0.5l0.1,0.4l0.1-0.3
			l0,0.5l0.1-0.3l0,0.3l0-0.5l0.1,0.2l0-0.5l0,0.9l0.1-0.5l0,0.4l0-0.5l0.1,0.3l0.1-0.3l0,0.7l0.1-0.5l0.1,0.5l0-0.9l0.1,0.4
			l0.1,0.4l0-0.6l0.1,0.3l0.1-0.5l0,0.8l0-0.3l0,0.3l0-0.8l0.1,0.2l0-0.1l0.1,0.8l0.1-0.5l0.1,0.4l0-0.8l0,0.4l0,0.3l0-0.8l0.1,0.5
			l0.1-0.6l0,0.8l0-0.2l0.1,0.3l0-0.6l0,0.1l0-0.2l0,0.8l0.1-0.5l0.1,0.4l0.1-0.7l0,0.5l0-0.5l0,0.7l0.1-0.3l0-0.4l0,0.5l0.1-0.3
			l0.1,0.3l0-0.8l0.1,0.4l0.1-0.2l0,0.5l0.1-0.4l0,0.4l0-0.5l0.1,0.3l0.1-0.4l0,0.6l0-0.3l0.1,0.4l-0.1-0.7l0.1,0.4l0.1-0.5l0,0.8
			l0.1-0.5l0.1,0.4l0-0.6l0.1,0.2l0.1,0.4l0.1-0.8l0.1,0.7l0.1-0.1l0,0l0-0.5l0.1,0.6l0-0.4l0,0.5l0-0.7l0.1,0.5l0.1-0.5l-0.1,0.5
			l0.1-0.3l0.1,0.6l0-0.8l0,0.5l0-0.4l0.1,0.5l0-0.4l0,0l0,0.5l0.1-0.7l0,0.2l0.1,0.3l-0.1-0.5l0.1,0.4l0.1,0.1l0-0.4l0.1,0.2
			l0.1-0.3l0,0.7l0.1-0.6l0.1,0.6l0-0.6l0,0.2l0-0.2l0,0.7l0.1-0.4l0,0.4l0-0.7l0.1,0.4l0,0.2l0-0.6l0.1,0.5l0.1-0.4l0,0.6l0-0.4
			l0.1,0.3l-0.1-0.5l0.1,0.3l0-0.4l0,0.6l0.1-0.2l0,0.3l0.1-0.7l0.1,0.5l0.1-0.6l0,0.7l0.1-0.4l0.1,0.5l0.1-0.8l0,0.5l0.1,0.2l0-0.5
			l0.1,0.4l0-0.5l0,0.6l0.1-0.4l0.1-0.1l0,0.5l0-0.6l0.1,0.3l0,0.4l0-0.7l0.1,0.2l0,0.3l0.1-0.5l0,0.1l0.1-0.1l0,0.6l0.1-0.3
			l0.1,0.3l0-0.9l0,0.3l0.1,0.7l-0.1-0.8l0.1,0.3l0-0.2l0,0.4l0.1,0l0,0l0-0.5l0,0.5l0.1-0.1l0,0l0-0.2l0.1-0.3l0,0.7l0.1-0.3l0,0
			l0.1,0.2l0-0.7l0.1,0.7l0.1-0.3l0,0.5l0.1-0.9l0,0.7l0.1-0.8l0,0.3l0.1-0.2l0,0.6l0.1-0.5l0.1,0.4l-0.1-0.7l0.1,0.4l0.1-0.4l0,0.7
			l0.1-0.5l0.1,0.5l-0.1-0.5l0.1,0.4l0.1-0.5l0,0.6l0-0.2l0.1-0.4l0.1,0.6l0-0.5l0,0.7l0-0.7l0.1,0.3l0-0.4l0,0.8l0-0.6l0,0.7
			l0.1-0.8l0,0.5l0.1-0.3l-0.1,0.6l0.1-0.5l0.1,0.6l0-0.7l0.1,0.4l0-0.4l0.1,0.7l0.1-0.3l0-0.5l0.1,0.6l0-0.3l0,0.4l0.1-0.7l0.1,0.5
			l0.1-0.4l0,0.5l0.1-0.3l0.1,0.3l-0.1-0.5l0.1,0.4l0.1-0.5l-0.1,0.7l0.1-0.2l0,0l0-0.4l0,0.2l0-0.3l0.1,0.6l0-0.6l0,0.6l0.1-0.1
			l0-0.5l0,2.7l0.1-0.3l0.2-0.6l-0.1,0.7l0.1-0.4l0,0.1l0.1-0.7l0,0.3l0.1-0.5l-0.1,0.7l0.1-0.4l0.1,0.3l0.1-0.7l0,0.5l0-0.7
			l0.1,0.2l0.1,0.2l-0.1-0.6l0.1,0.2l0-0.2l0,0.6l0.1-0.4l0.1,0.4l0.1-0.6l0,0.5l0-0.6l0.1,0.4l0,0l0-0.4l0,0.2l0.1-0.4l0,0.7
			l0.1-0.4l0-0.3l0.1,0.6l0.1-0.4l0.1-0.4l-0.1,0.6l0.1-0.2l0.1,0.3l0-0.7l0.1,0.5l0.1,0.2l0-0.9l0.1,0.4l0.1,0.4l-0.1-0.5l0.1,0.4
			l0-0.5l0.1,0.6l0-0.2l0.1-0.3l0,0.6l0.1-0.8l-0.1,0.9l0.1-0.5l0.1,0.3l0-0.7l0.1,0.6l0.1,0.3l0.1-0.7l0.1,0l0,0.6l0.1-0.5l0,0.7
			l0.1-0.6l0.1,0.3l0-0.8l0,0.6l0.1,0.2L409,240l0.1,0.3l0-0.2l0.1,0.6l0.1-0.3l0.1,0.3l0-0.7l0.1,0.6l0.1-0.5l0,0.7l0.1-0.5l0,0.3
			l0.1-0.5l0,0.4l0-0.5l0.1,0.8l0.1-0.6l0,0.6l0-0.8l0.1,0.5l0.1-0.5l0,0.6l0-0.4l0.1-0.3l0,0.6l0-0.1l0,0.2l0.1-0.8l0,0.5l0.1-0.5
			l-0.1,0.7l0.1-0.4l0.1,0.5l-0.1-0.8l0.1,0.6l0.1,0.1l0.1-0.8l0.1,0.7l0-0.2l0,0l0,0.1l0.1-0.4l0,0.5l0.1-0.4l0.1,0.3l-0.1-0.6
			l0.1,0.4l0.1-0.2l0,0.5l0.1-0.5l0.1,0.4l0-0.6l0,0.3l0.1-0.2l0,0.6l0.1-0.5l0,0.4l0-0.6l0.1,0.3l0.1-0.4l0,0.8l0.1-0.5l0.1,0.5
			l0-0.7l0,0.5l0-0.4l0.1,0.7l0.1-0.3l0.1,0.4l-0.1-0.9l0.1,0.4l0.1,0.5l0-0.8l0.1,0.4l0.1-0.4l0,0.6l0.1-0.3l0.1-0.6l0,1l0.1-0.4
			l0,0.5l0-0.7l0.1,0.6l0.1-0.6l-0.1,0.7l0.1-0.2l0.1-0.5l-0.1,0.6l0.1-0.6l0.1,0.7l0-0.7l0,0.3l0-0.3l0.1,0.7l0-0.7l0.1,0.6
			l0.1-0.5l0.1,0.7l0.1-0.8l0,0.9l0.1-0.7l0.1,0.5l0.1-0.6l0,0.2l0,0.5l0.1-0.6l0,0.2l0,0.3l0-0.7l0.1,0.5l0.1-0.8l-0.1,1l0.1-0.4
			l0.1,0.3l0-0.6l0.1,0.2l0.1-0.3l-0.1,0.8l0.1-0.5l0.1-0.2l0.1,0.7l0.1-0.7l0.1,0l0.1,0.6l0-0.4l0.1,0.4l-0.1-0.6l0.1,0.2l0-0.5
			l0.1,0.9l0-0.2l0.1-0.4l0,0.7l0.1-0.5l0,0.6l0.1-0.7l0,0.4l0,0.4l0.1-0.8l0.1,0.5l0.1,0l0-0.5l0,0.7l0.1-0.4l0.1-0.3l0.1,0.7
			l0.1-0.8l0,0.9l0-0.7l0.1,0.6l0-0.6l0,0.5l0.1-0.5l0.1,0.2l0.1-0.4l0.1,0.7l0.1,0.2l0.1-0.9l0.1,0.6l0.1-0.2l0.1-0.3l0,0.5l0-0.2
			l0.1,0.3l-0.1-0.8l0.1,0.5l0.1-0.3l-0.1,0.7l0.1-0.4l0-0.4l0.1,0.9l0-0.7l0.1,0.2l0.1-0.4l0,0.7l0-0.2l0,0.2l0.1-0.7l0,0.5
			l0.1-0.4l0,0.6l0-0.4l0,0.4l0.1-0.7l0.1,0.3l0.1-0.2l0,0.5l0.1-0.1l0,0.2l0.1-0.7l0.1,0.5l0.1,0.2l0-0.5l0.1,0.3l0.1-0.4l0.1,0.7
			l0-0.3l0-0.5l0,0.6l0.1-0.2l0.1,0.2l0-0.7l0.1,0.5l0,0.2l0-0.4l0,0.3l0-0.4l0.1,0.7l0.1-0.2l0.1,0.4l-0.1-0.9l0.1,0.3l0,0l0.1,0.4
			l0-0.7l0.1,0.3l0,0.4l0-0.6l0.1,0.6l0.1-0.7l-0.1,0.7l0.1-0.4l0,0.1l0.1,0.6l0-1l0.1,0.5l0.1,0.2l0.1-0.7l0,0.7l0.1-0.2l0.1-0.4
			l0,0.7l0.1-0.4l0.1,0.3l0-0.6l0.1,0.1l0.1,0.4l0-0.6l0,0.5l0-0.6l0.1,0.6l0.1-0.3l0.1-0.4l0.1,0.6l0-0.3l0.1,0.4l-0.1-0.6l0.1,0.2
			l0,0l0,0.4l0-0.7l0.1,0.3l0-0.2l0,0.8l0.1-0.6l0.1,0.4l-0.1-0.7l0.1,0.5l0.1-0.5l0,0.7l0.1-0.5l0,0.6l0.1-0.1l0.1-0.6l0.1,0.4
			l0.1-0.5l0,0.7l0.1-0.3l0.1,0.4l0-0.7l0.1,0.4l0.1-0.3l-0.1,0.6l0.1-0.5l0.1-0.3l0.1,0.7l0.1-0.7l0.1,0.6l0-0.5l0,0.8l0.1-0.4
			l0,0.1l0-0.2l0.1-0.3l-0.1,0.7l0.1-0.3l0.1,0.3l0-0.6l0,0l0-0.1l0,0.7l0.1-0.6l0.1,0.4l0-0.7l0,0.6l0.1-0.5l0,0.6l0.1-0.2l0-0.4
			l0.1,0.7l0.1-0.5l0,0.6l0-0.7l0.1,0.2l0.1-0.4l0,0.9l0-0.8l0,0.7l0.1-0.4l0.1,0.5l0-0.7l0.1,0.5l0-0.4l0,0.5l0.1-0.1l0.1-0.4
			l0,0.5l0-0.4l0.1,0.4l0-0.6l0.1,0.4l0-0.4l0,0.5l0.1-0.2l0.1,0.3l0-0.7l0,0.6l0,0.1l0.1-0.6l0.1,0.7l0-0.8l0.1,0.7l0.1-0.7
			l0.1,0.1l0.1,0.6l0-0.7l0.1,0.4l0.1,0.3l0-0.7l0.1,0.4l0.1-0.3l0,0.6l0.1-0.1l0.1,0.3l0-0.7l0,0.1l0.1,0.5l0-0.7l0.1,0.3l0-0.3
			l0,0.8l0.1-0.5l0,0.3l0.1-0.7l0.1,0.3l0.1,0.4l0-0.6l0,0.1l0-0.3l0,0.7l0.1-0.5l0.1,0.5l0-0.6l0.1,0.6l0.1-0.6l0.1,0.2l0.1,0.3
			l0-0.5l0.1,0.3l0-0.4l0.1,0.5l0.1-0.2l0,0.4l0-0.7l0.1,0.3l0.1-0.3l0,0.7l0.1-0.4l0,0.4l0-0.6l0.1,0.4l0.1,0.2l0.1-0.6l0.1,0.6
			l0-0.8l0,0.5l0.1,0.2l0-0.5l0,0.4l0-0.6l0,0.6l0.1-0.2l0,0.2l0-0.6l0.1,0.2l0,0l0-0.2l0.1,0.6l0-0.7l0.1,0.5l0-0.5l0.1,0.6l0-0.5
			l0,0.6l0-0.7l0.1,0.3l0-0.3l0,0.7l0.1-0.6l0.1,0.6l0-0.7l0,0.7l0.1-0.6l0,0.2l0-0.2l0,0.5l0-0.2l0.1,0.3l-0.1-0.8l0.1,0.6l0.1-0.5
			l0,0.6l0.1-0.6l0,0.5l0.1-0.6l0,0.5l0-0.3l0,0.6l0.1-0.5l0,0.5l0-0.6l0,0.4"/>
	</g>
</g>
<text transform="matrix(1 0 0 1 3.833 22.8403)" class="st2 st3 st4">A</text>
<g id="g1456" transform="translate(-142.02835,101.85556)" inkscape:label="Fig1_p2">
	<g id="g1460" transform="translate(125.70787,63.639612)">
		<g>
			<defs>
				<rect id="SVGID_77_" x="22.7" y="-204.8" width="82.9" height="80.6"/>
			</defs>
			<clipPath id="SVGID_78_">
				<use xlink:href="#SVGID_77_"  style="overflow:visible;"/>
			</clipPath>
			<g id="g1462" class="st49">
				<path id="path1468" inkscape:connector-curvature="0" class="st50" d="M26.3-127.7h15.2l0-14l0.1,14h3.6l0-14l0.1,14H49l0-14
					l0.1,14h3.6l0-14l0.1,14h26.4l0-14l0.1,14h22.6l0,0"/>
			</g>
		</g>
	</g>
	<g id="g1470" transform="translate(127.67206,29.85562)">
		<g>
			<defs>
				<rect id="SVGID_79_" x="23.4" y="-126" width="82.9" height="80.6"/>
			</defs>
			<clipPath id="SVGID_80_">
				<use xlink:href="#SVGID_79_"  style="overflow:visible;"/>
			</clipPath>
			<g id="g1472" class="st51">
				<path id="path1478" inkscape:connector-curvature="0" class="st8" d="M87.5-107.7H95"/>
			</g>
		</g>
	</g>
	<g id="g1498">
		<path id="path1492" inkscape:connector-curvature="0" sodipodi:nodetypes="ccscc" class="st52" d="M170.8-52v27.2
			c0,0-19.4,11-19.4,20.4v111h41.4"/>
		<path id="path1494" inkscape:connector-curvature="0" sodipodi:nodetypes="ccscc" class="st52" d="M214.8-52v27.2
			c0,0,19.4,11,19.4,20.4v111h-41.4"/>
	</g>
	<g id="g1504" transform="matrix(1,0,0,-1,0,-86.574298)">
		<path id="path1500" inkscape:connector-curvature="0" sodipodi:nodetypes="ccscc" class="st52" d="M170.8-254v9.2
			c0,0-19.4,11-19.4,20.4v28h41"/>
		<path id="path1502" inkscape:connector-curvature="0" sodipodi:nodetypes="ccscc" class="st52" d="M214.8-254v9.2
			c0,0,19.4,11,19.4,20.4v28h-43.4"/>
	</g>
</g>
<path id="rect1510" class="st0" d="M45.8,63h9.6c5.7,0,10.4,4.6,10.4,10.4V80c0,5.7-4.6,10.4-10.4,10.4h-9.6
	c-5.7,0-10.4-4.6-10.4-10.4v-6.7C35.5,67.6,40.1,63,45.8,63z"/>
<path id="rect1516" class="st0" d="M50.6,53.8L50.6,53.8c2.3,0,4.2,1.9,4.2,4.3l0,0c0,2.4-1.9,4.3-4.2,4.3l0,0
	c-2.3,0-4.2-1.9-4.2-4.3l0,0C46.5,55.7,48.3,53.8,50.6,53.8z"/>
<g>
	<defs>
		<rect id="SVGID_81_" x="35.5" y="62.7" width="93" height="31.7"/>
	</defs>
	<clipPath id="SVGID_82_">
		<use xlink:href="#SVGID_81_"  style="overflow:visible;"/>
	</clipPath>
	<g id="g1520" transform="translate(-18.786791,-19.899483)" class="st53">
		<path id="path1518" inkscape:connector-curvature="0" sodipodi:nodetypes="cccccccccccccc" class="st54" d="M61.6,99.5l4.2,0
			l0-9.3l0.1,0.2l1,1.7l1.1,1.4l1.1,1.2l1.2,1l1.2,0.8l1.4,0.7l1.5,0.6l1.7,0.5l2.1,0.4l2.6,0.3"/>
		<text transform="matrix(1 0 0 1 16.9347 94.3673)" class="st55 st56">*</text>
		<text transform="matrix(1 0 0 1 16.9347 94.3673)" class="st52 st55 st56">*</text>
	</g>
</g>
<text transform="matrix(1 0 0 1 47.9697 63.5283)" class="st2 st55 st57">*</text>
<path id="path1536" inkscape:connector-curvature="0" sodipodi:nodetypes="cc" class="st52" d="M50.6,46.7v7.1"/>
<path id="path1550" inkscape:connector-curvature="0" sodipodi:nodetypes="cc" class="st52" d="M51.2,90.7v17.4"/>
<path id="rect1552" class="st0" d="M45.8,108.6h9.6c5.7,0,10.4,4.6,10.4,10.4v6.7c0,5.7-4.6,10.4-10.4,10.4h-9.6
	c-5.7,0-10.4-4.6-10.4-10.4v-6.7C35.5,113.2,40.1,108.6,45.8,108.6z"/>
<path id="path1556" inkscape:connector-curvature="0" sodipodi:nodetypes="cscc" class="st52" d="M38.2,129.8h3.7
	c6.8,0,6.6-15.8,15.7-16c2.9,0,4.4,0.1,4.4,0.1"/>
<path id="path1562" inkscape:connector-curvature="0" sodipodi:nodetypes="cc" class="st52" d="M50.8,136.2v17.4"/>
<image style="overflow:visible;enable-background:new    ;" width="570" height="428" id="image1646" xlink:href="27F864777175EF2B.jpg"  transform="matrix(4.097330e-02 0 0 4.097329e-02 38.7354 155.6547)">
</image>
<path id="rect1564" class="st58" d="M45.5,154.1h9.6c5.7,0,10.4,4.6,10.4,10.4v6.7c0,5.7-4.6,10.4-10.4,10.4h-9.6
	c-5.7,0-10.4-4.6-10.4-10.4v-6.7C35.1,158.8,39.7,154.1,45.5,154.1z"/>
<path id="path1961" inkscape:connector-curvature="0" sodipodi:nodetypes="cc" class="st52" d="M50.3,181.3v27.4"/>
<path id="rect1963" class="st0" d="M45.4,224.8H55c5.7,0,10.4,4.6,10.4,10.4v6.7c0,5.7-4.6,10.4-10.4,10.4h-9.6
	c-5.7,0-10.4-4.6-10.4-10.4v-6.7C35,229.5,39.6,224.8,45.4,224.8z"/>
<g>
	<defs>
		<rect id="SVGID_83_" x="35" y="220.2" width="93" height="31.7"/>
	</defs>
	<clipPath id="SVGID_84_">
		<use xlink:href="#SVGID_83_"  style="overflow:visible;"/>
	</clipPath>
	<g id="g1971" transform="matrix(1,0,0,-1,-19.125002,218.40541)" class="st59">
		<path id="path1965" inkscape:connector-curvature="0" sodipodi:nodetypes="cccccccccccccc" class="st54" d="M61.5-16.6l4.2,0
			l0-9.3l0.1,0.2l1,1.7l1.1,1.4l1.1,1.2l1.2,1l1.2,0.8l1.4,0.7l1.5,0.6l1.7,0.5l2.1,0.4l2.6,0.3"/>
		<text transform="matrix(1 0 0 1 16.8223 -21.7088)" class="st55 st56">*</text>
		<text transform="matrix(1 0 0 1 16.8223 -21.7088)" class="st52 st55 st56">*</text>
	</g>
</g>
<text transform="matrix(1 0 0 1 47.5186 225.3774)" class="st2 st55 st57">*</text>
<path id="path1977" inkscape:connector-curvature="0" sodipodi:nodetypes="cc" class="st52" d="M50.2,211.8v3.8"/>
<path class="st60" d=""/>
<path id="path1794" inkscape:connector-curvature="0" class="st61" d="M50.3,270.6l2-3.5h-4L50.3,270.6z"/>
<path id="path1985" inkscape:connector-curvature="0" sodipodi:nodetypes="ccc" class="st62" d="M50.3,268.3"/>
<circle id="path2009" class="st63" cx="51.2" cy="100.1" r="2"/>
<text transform="matrix(1 0 0 1 53.6709 147.1729)" class="st2 st3 st64">D</text>
<circle id="circle2025" class="st63" cx="50.8" cy="144.1" r="2"/>
<text transform="matrix(1 0 0 1 53.6709 103.1729)" class="st2 st3 st64">C</text>
<circle id="circle2035" class="st63" cx="50.3" cy="200.1" r="2"/>
<text transform="matrix(1 0 0 1 53.6709 203.1729)" class="st2 st3 st64">E</text>
<circle id="circle2043" class="st63" cx="50.3" cy="260.1" r="2"/>
<text transform="matrix(1 0 0 1 53.6709 263.1729)" class="st2 st3 st64">F</text>
<text transform="matrix(1 0 0 1 53.6709 73.1729)" class="st2 st3 st64">B</text>
<text transform="matrix(1 0 0 1 37.0187 175.8515)" class="st2 st3 st65">Sampling</text>
<path id="path1961_1_" inkscape:connector-curvature="0" sodipodi:nodetypes="cc" class="st52" d="M50.4,251.9v15.3"/>
</svg>
